<svg width="32" height="32" viewBox="0 0 32 32" fill="none" xmlns="http://www.w3.org/2000/svg">
<path d="M11.1515 13.0264C11.1515 11.2344 9.69808 9.78125 7.90576 9.78125C6.11344 9.78125 4.66064 11.2344 4.66064 13.0264C4.66064 14.8197 6.11312 16.2721 7.90576 16.2721C9.6984 16.2721 11.1515 14.8197 11.1515 13.0264Z" fill="#FFA101"/>
<path d="M24.0938 10.415C22.3018 10.415 20.8486 11.8682 20.8486 13.6602C20.8486 15.4534 22.3018 16.9053 24.0938 16.9053C25.8861 16.9053 27.3392 15.4534 27.3392 13.6602C27.3392 11.8682 25.8864 10.415 24.0938 10.415Z" fill="#FFA101"/>
<path d="M21.1464 17.2728C20.9208 16.9947 20.6015 16.6728 20.2348 16.3352C19.2562 15.0671 17.7256 14.2466 16.0002 14.2466C14.4645 14.2466 13.084 14.8968 12.1084 15.933C11.5541 16.4152 11.0613 16.8859 10.7477 17.2731L10.5378 17.5295C9.5586 18.7234 8.33972 20.2088 8.34868 22.7295C8.35732 25.0703 10.2636 26.9759 12.5976 26.9759C13.9308 26.9759 15.1525 26.3595 15.9471 25.325C16.741 26.3595 17.9631 26.9759 19.2975 26.9759C21.6306 26.9759 23.5365 25.0706 23.5455 22.7295C23.5544 20.2088 22.3352 18.7234 21.3564 17.5295L21.1464 17.2728Z" fill="#FFA101"/>
<path d="M16.2249 12.1764C18.1999 12.1764 19.8009 10.5754 19.8009 8.60041C19.8009 6.62544 18.1999 5.02441 16.2249 5.02441C14.25 5.02441 12.6489 6.62544 12.6489 8.60041C12.6489 10.5754 14.25 12.1764 16.2249 12.1764Z" fill="#FFA101"/>
</svg>
