<svg width="177" height="177" viewBox="0 0 177 177" fill="none" xmlns="http://www.w3.org/2000/svg">
<g id="cat-svgrepo-com 1" opacity="0.4">
<g id="SVGRepo_iconCarrier">
<path id="Vector" fill-rule="evenodd" clip-rule="evenodd" d="M44.9452 31.3721C40.4332 31.3721 35.2336 32.6867 31.0714 36.2724C26.7567 39.9897 24.1657 45.6267 24.1657 52.9805V66.7732L24.1658 66.7949C24.1742 68.9572 24.5413 73.2838 25.7749 76.9003C26.1784 78.0839 26.8231 79.6529 27.8996 81.0682C25.8105 85.2097 24.8204 89.4813 24.3704 93.6007C23.9948 97.0404 23.9897 100.651 24.0495 103.985C19.1868 105.674 14.1521 107.764 11.8308 109.263C9.27113 110.916 8.53626 114.332 10.1893 116.891C11.8424 119.451 15.2574 120.186 17.817 118.533C18.6734 117.979 21.1999 116.823 24.5234 115.554C25.0301 119.078 26.0571 122.289 27.4911 125.208C26.3444 125.923 25.3311 126.585 24.5251 127.113C24.2165 127.314 23.9383 127.496 23.6945 127.653C21.1349 129.306 20.4001 132.722 22.0531 135.281C23.7062 137.841 27.1212 138.576 29.6808 136.923C29.9833 136.727 30.3057 136.517 30.646 136.295C31.6109 135.665 32.7196 134.941 33.927 134.201C38.2635 138.633 43.6491 142.054 49.2434 144.628C62.3433 150.654 77.8574 152.747 88.3846 152.747C98.9112 152.747 114.426 150.654 127.526 144.628C133.12 142.054 138.505 138.633 142.842 134.201C144.049 134.941 145.158 135.665 146.122 136.295C146.463 136.517 146.785 136.727 147.088 136.923C149.647 138.576 153.062 137.841 154.716 135.281C156.369 132.722 155.634 129.306 153.074 127.653C152.83 127.496 152.552 127.314 152.243 127.113C151.437 126.585 150.424 125.923 149.278 125.208C150.712 122.289 151.74 119.078 152.246 115.553C155.571 116.822 158.098 117.979 158.955 118.533C161.514 120.186 164.93 119.451 166.583 116.891C168.236 114.332 167.501 110.916 164.941 109.263C162.619 107.764 157.583 105.673 152.719 103.984C152.78 100.65 152.775 97.0397 152.399 93.6007C151.949 89.4813 150.958 85.2097 148.869 81.0682C149.946 79.6529 150.591 78.0839 150.994 76.9003C152.228 73.2839 152.595 68.9572 152.603 66.7949L152.604 66.7732V52.9813C152.604 45.6275 150.012 39.9906 145.698 36.2733C141.536 32.6875 136.336 31.3729 131.824 31.3729C128.819 31.3729 125.712 32.5259 123.205 33.658C120.549 34.8583 117.773 36.4176 115.276 37.8554C114.739 38.1646 114.218 38.4666 113.711 38.7599L113.696 38.7685C111.754 39.8933 110.031 40.8916 108.495 41.6829C107.541 42.1745 106.8 42.5114 106.248 42.7156C106.016 42.8017 105.867 42.845 105.791 42.8653C103.927 42.855 102.739 42.7028 101.022 42.483C100.655 42.4358 100.262 42.3855 99.8329 42.3328C97.2833 42.0195 94.0643 41.7174 88.3846 41.7174C82.705 41.7174 79.4867 42.0195 76.9364 42.3328C76.5075 42.3855 76.1154 42.4358 75.7469 42.483C74.0315 42.7028 72.8433 42.855 70.9786 42.8653C70.9023 42.845 70.7538 42.8016 70.5215 42.7156C69.97 42.5114 69.229 42.1744 68.2748 41.6828C66.739 40.8914 65.016 39.8935 63.0736 38.7685C62.5623 38.4724 62.0358 38.1674 61.4935 37.8551C58.9965 36.4172 56.2205 34.8577 53.5641 33.6574C51.0583 32.5251 47.9497 31.3721 44.9452 31.3721ZM45.4386 129.677C47.8957 131.53 50.7267 133.165 53.8548 134.603C65.1162 139.784 78.9527 141.713 88.3846 141.713C97.8166 141.713 111.653 139.784 122.914 134.603C126.043 133.165 128.873 131.53 131.33 129.677C128.738 129.225 126.767 126.964 126.767 124.242C126.767 121.196 129.237 118.725 132.284 118.725C134.691 118.725 137.151 119.327 139.434 120.163C140.601 117.721 141.317 115.047 141.514 112.12C139.324 111.586 137.812 111.369 137.033 111.369C133.986 111.369 131.515 108.899 131.515 105.852C131.515 102.805 133.986 100.335 137.033 100.335C138.465 100.335 140.085 100.55 141.718 100.868C141.719 98.8368 141.653 96.8426 141.43 94.799C140.911 90.0514 139.567 85.8372 136.396 82.09C135.262 80.7497 133.851 79.4168 132.08 78.1162C129.624 76.3132 129.095 72.8602 130.899 70.4042C132.702 67.9482 136.155 67.4191 138.611 69.2224C139.487 69.8658 140.316 70.5271 141.097 71.2056C141.42 69.527 141.565 67.7712 141.57 66.7612V52.9813C141.57 48.3816 140.051 45.9728 138.496 44.6329C136.788 43.1614 134.356 42.407 131.824 42.407C131.307 42.407 130.012 42.6907 127.748 43.7134C125.635 44.6682 123.275 45.9821 120.782 47.4175C120.314 47.6871 119.838 47.9632 119.357 48.2416C117.387 49.3829 115.351 50.5628 113.548 51.4916C112.411 52.0774 111.226 52.6384 110.081 53.0627C109.024 53.4544 107.561 53.9 105.995 53.9C103.26 53.9 101.343 53.6519 99.5026 53.4138C99.1635 53.3699 98.8266 53.3262 98.4875 53.2846C96.3638 53.0236 93.5949 52.7515 88.3846 52.7515C83.1751 52.7515 80.4055 53.0236 78.2818 53.2846C77.9434 53.3262 77.6065 53.3698 77.2667 53.4137C75.4269 53.6519 73.5096 53.9 70.7742 53.9C69.2085 53.9 67.7461 53.4543 66.6886 53.0626C65.5431 52.6383 64.3579 52.0773 63.2208 51.4914C61.4182 50.5626 59.382 49.3826 57.4125 48.2414C56.9319 47.9629 56.4552 47.6867 55.987 47.417C53.4942 45.9814 51.1338 44.6675 49.0207 43.7127C46.757 42.6898 45.4629 42.4062 44.9452 42.4062C42.413 42.4062 39.9815 43.1605 38.2734 44.632C36.718 45.972 35.1998 48.3807 35.1998 52.9805V66.7612C35.2047 67.7713 35.3485 69.527 35.6721 71.2056C36.4539 70.527 37.2819 69.8658 38.1581 69.2224C40.6142 67.4191 44.067 67.9482 45.8704 70.4043C47.6737 72.8602 47.1447 76.3132 44.6886 78.1162C42.9179 79.4168 41.5072 80.7497 40.3731 82.09C37.2021 85.8372 35.8578 90.0514 35.3393 94.799C35.116 96.8426 35.0499 98.8368 35.0506 100.869C36.6849 100.551 38.3061 100.335 39.7396 100.335C42.7866 100.335 45.2567 102.805 45.2567 105.852C45.2567 108.899 42.7866 111.369 39.7396 111.369C38.96 111.369 37.4467 111.586 35.2553 112.12C35.4521 115.047 36.1682 117.721 37.3348 120.162C39.6182 119.327 42.0777 118.725 44.4846 118.725C47.5317 118.725 50.0017 121.196 50.0017 124.242C50.0017 126.964 48.0309 129.225 45.4386 129.677Z" fill="#472922"/>
</g>
</g>
</svg>
