<svg width="69" height="69" viewBox="0 0 69 69" fill="none" xmlns="http://www.w3.org/2000/svg">
<g clip-path="url(#clip0_764_4760)">
<path d="M34.2054 49.9662C31.5704 49.9662 29.7939 48.7592 29.7939 46.9572C29.7939 45.1552 31.5619 43.9482 34.2054 43.9482C36.8404 43.9482 38.6169 45.1552 38.6169 46.9572C38.6169 48.7507 36.8489 49.9662 34.2054 49.9662Z" fill="#472922"/>
<path d="M42.6963 44.4731C41.5828 44.4731 40.5713 43.8696 39.9168 42.8156C39.4493 42.0676 39.1943 41.1156 39.1943 40.1296C39.1943 39.1521 39.4493 38.1916 39.9168 37.4436C40.5713 36.3896 41.5828 35.7861 42.6963 35.7861C43.8098 35.7861 44.8213 36.3896 45.4758 37.4436C45.9433 38.1916 46.1983 39.1436 46.1983 40.1296C46.1983 41.1071 45.9433 42.0676 45.4758 42.8156C44.8213 43.8696 43.8098 44.4731 42.6963 44.4731Z" fill="#472922"/>
<path d="M25.6963 44.4731C24.5828 44.4731 23.5713 43.8696 22.9168 42.8156C22.4493 42.0676 22.1943 41.1156 22.1943 40.1296C22.1943 39.1521 22.4493 38.1916 22.9168 37.4436C23.5713 36.3896 24.5828 35.7861 25.6963 35.7861C26.8098 35.7861 27.8213 36.3896 28.4758 37.4436C28.9433 38.1916 29.1983 39.1436 29.1983 40.1296C29.1983 41.1071 28.9433 42.0676 28.4758 42.8156C27.8213 43.8696 26.8098 44.4731 25.6963 44.4731Z" fill="#472922"/>
<path d="M62.4845 47.573C62.0935 47.573 61.694 47.4625 61.337 47.233C60.2235 46.5105 54.656 44.4705 52.8965 44.4705C51.7235 44.4705 50.7715 43.5185 50.7715 42.3455C50.7715 41.1725 51.7235 40.2205 52.8965 40.2205C55.7015 40.2205 61.983 42.5835 63.649 43.663C64.635 44.3005 64.9155 45.618 64.278 46.604C63.87 47.233 63.1815 47.573 62.4845 47.573Z" fill="#472922"/>
<path d="M57.9118 54.6596C57.5208 54.6596 57.1213 54.5491 56.7643 54.3196C56.6538 54.2516 56.5433 54.1751 56.4158 54.0901C55.3533 53.4016 52.5483 51.5571 51.0693 51.5571C49.8963 51.5571 48.9443 50.6051 48.9443 49.4321C48.9443 48.2591 49.8963 47.3071 51.0693 47.3071C53.6023 47.3071 56.3563 48.9731 58.7448 50.5286C58.8638 50.6051 58.9743 50.6816 59.0763 50.7496C60.0623 51.3871 60.3428 52.7046 59.7053 53.6906C59.2973 54.3111 58.6173 54.6596 57.9118 54.6596Z" fill="#472922"/>
<path d="M5.82378 47.573C5.12678 47.573 4.44678 47.233 4.03878 46.604C3.40128 45.618 3.68178 44.3005 4.66778 43.663C6.33378 42.592 12.6153 40.2205 15.4203 40.2205C16.5933 40.2205 17.5453 41.1725 17.5453 42.3455C17.5453 43.5185 16.5933 44.4705 15.4203 44.4705C13.6608 44.4705 8.09328 46.5105 6.97978 47.233C6.61428 47.4625 6.21478 47.573 5.82378 47.573Z" fill="#472922"/>
<path d="M10.3882 54.6596C9.69123 54.6596 9.01123 54.3196 8.60323 53.6906C7.96573 52.7046 8.24623 51.3871 9.23223 50.7496C9.33423 50.6816 9.44473 50.6136 9.56373 50.5286C11.9522 48.9731 14.7062 47.3071 17.2392 47.3071C18.4122 47.3071 19.3642 48.2591 19.3642 49.4321C19.3642 50.6051 18.4122 51.5571 17.2392 51.5571C15.7602 51.5571 12.9467 53.3931 11.8927 54.0901C11.7652 54.1751 11.6462 54.2516 11.5357 54.3196C11.1872 54.5491 10.7877 54.6596 10.3882 54.6596Z" fill="#472922"/>
<path d="M51.7409 32.4328C51.4094 32.4328 51.0779 32.3563 50.7634 32.1948C49.7179 31.6593 49.3099 30.3758 49.8539 29.3303C50.8314 27.4433 51.7154 25.5053 52.4804 23.5673C54.5629 18.3058 54.6734 16.1043 54.5034 14.6508C54.3844 13.6138 54.1379 12.8233 53.7469 12.2283C53.3899 11.6758 52.8629 11.2933 52.3869 11.2253C51.7494 11.1318 50.6869 11.6503 49.5479 12.6193C46.7429 15.0078 43.7254 19.8953 41.2519 26.0408C40.8099 27.1288 39.5774 27.6558 38.4894 27.2223C37.4014 26.7803 36.8744 25.5478 37.3079 24.4598C38.9059 20.4903 42.2634 13.2483 46.7854 9.38931C48.9614 7.52781 51.0609 6.73731 53.0074 7.02631C54.7074 7.28131 56.2714 8.33531 57.3084 9.91631C58.0649 11.0723 58.5239 12.4663 58.7279 14.1748C59.0594 17.0138 58.3879 20.1928 56.4329 25.1398C55.6169 27.2138 54.6734 29.2793 53.6279 31.2938C53.2539 32.0163 52.5059 32.4328 51.7409 32.4328Z" fill="#472922"/>
<path d="M16.6783 32.4253C15.9133 32.4253 15.1653 32.0088 14.7913 31.2778C13.7543 29.2633 12.8108 27.1978 11.9863 25.1238C10.0313 20.1768 9.36834 16.9978 9.69134 14.1588C9.88684 12.4588 10.3543 11.0648 11.1023 9.90029C12.1308 8.31929 13.7033 7.26529 15.4033 7.01029C17.3498 6.72129 19.4408 7.52029 21.6253 9.37329C26.1558 13.2323 29.5048 20.4743 31.1028 24.4438C31.5448 25.5318 31.0093 26.7728 29.9213 27.2063C28.8333 27.6483 27.5923 27.1128 27.1588 26.0248C24.6853 19.8878 21.6678 14.9918 18.8628 12.6033C17.7238 11.6343 16.6613 11.1158 16.0238 11.2093C15.5393 11.2773 15.0208 11.6683 14.6638 12.2123C14.2728 12.8073 14.0263 13.5978 13.9073 14.6348C13.7373 16.0883 13.8478 18.2813 15.9303 23.5513C16.6953 25.4893 17.5793 27.4273 18.5568 29.3143C19.0923 30.3598 18.6843 31.6348 17.6473 32.1788C17.3413 32.3488 17.0098 32.4253 16.6783 32.4253Z" fill="#472922"/>
<path d="M34.1546 60.7387C29.5391 60.7387 26.1731 60.5687 21.6511 58.3247C20.4866 57.7467 19.3646 57.0582 18.3191 56.2847C17.0696 55.3582 10.8391 50.3262 10.5161 41.7072C10.4056 38.8172 10.9921 35.9697 12.2416 33.2497C12.9471 31.7112 13.8736 30.2322 14.9276 28.9572C15.6756 28.0477 17.0101 27.9202 17.9196 28.6682C18.8291 29.4162 18.9566 30.7507 18.2086 31.6602C17.1121 32.9947 14.5876 36.6157 14.7661 41.5542C15.0211 48.3712 20.2486 52.4342 20.8436 52.8762C21.6851 53.4967 22.5946 54.0577 23.5381 54.5252C27.1081 56.3017 29.6326 56.4972 34.1546 56.4972C38.6766 56.4972 41.1926 56.3017 44.7711 54.5252C45.7146 54.0577 46.6241 53.5052 47.4656 52.8762C48.0606 52.4342 53.2966 48.3712 53.5431 41.5542C53.7216 36.6242 51.1971 32.9947 50.1006 31.6602C49.3526 30.7507 49.4886 29.4162 50.3896 28.6682C51.2991 27.9202 52.6336 28.0562 53.3816 28.9572C54.4271 30.2322 55.3536 31.7112 56.0676 33.2497C57.3171 35.9697 57.9036 38.8087 57.7931 41.7072C57.4701 50.3262 51.2396 55.3667 49.9901 56.2847C48.9446 57.0582 47.8226 57.7382 46.6581 58.3247C42.1361 60.5687 38.7701 60.7387 34.1546 60.7387Z" fill="#472922"/>
<path d="M39.2886 27.3608C39.1271 27.3608 38.9571 27.3438 38.7956 27.3013C37.2741 26.9443 35.7186 26.7573 34.1716 26.7573C34.1631 26.7573 34.1546 26.7573 34.1546 26.7573C32.5991 26.7573 31.0436 26.9443 29.5221 27.3013C28.3831 27.5733 27.2356 26.8678 26.9636 25.7288C26.6916 24.5898 27.3971 23.4423 28.5361 23.1703C30.3806 22.7368 32.2676 22.5073 34.1461 22.5073C34.1546 22.5073 34.1631 22.5073 34.1716 22.5073C36.0501 22.5073 37.9371 22.7283 39.7816 23.1703C40.9206 23.4423 41.6261 24.5898 41.3541 25.7288C41.1161 26.7063 40.2491 27.3608 39.2886 27.3608Z" fill="#472922"/>
</g>
<defs>
<clipPath id="clip0_764_4760">
<rect width="68" height="68" fill="white" transform="translate(0.154297 0.15625)"/>
</clipPath>
</defs>
</svg>
