<svg width="69" height="69" viewBox="0 0 69 69" fill="none" xmlns="http://www.w3.org/2000/svg">
<path fill-rule="evenodd" clip-rule="evenodd" d="M34.2106 42.4727C33.3855 42.4727 32.542 42.5985 31.8272 42.8756C31.4764 43.0113 31.0475 43.2255 30.6698 43.5714C30.2907 43.9191 29.8008 44.5622 29.8008 45.4831C29.8008 46.4039 30.2907 47.0471 30.6698 47.3944C31.0475 47.7407 31.4764 47.9546 31.8272 48.0906C32.542 48.3677 33.3855 48.4935 34.2106 48.4935C35.0359 48.4935 35.8791 48.3677 36.5943 48.0906C36.9447 47.9546 37.3737 47.7407 37.7514 47.3944C38.1308 47.0471 38.6207 46.4039 38.6207 45.4831C38.6207 44.5622 38.1308 43.9191 37.7514 43.5714C37.3737 43.2255 36.9447 43.0113 36.5943 42.8756C35.8791 42.5985 35.0359 42.4727 34.2106 42.4727Z" fill="#472922"/>
<path d="M39.925 35.9886C40.3925 35.2338 41.3159 34.3342 42.7011 34.3342C44.0861 34.3342 45.0094 35.2338 45.4769 35.9886C45.9646 36.776 46.1969 37.7305 46.1969 38.6729C46.1969 39.615 45.9646 40.5695 45.4769 41.3569C45.0094 42.1117 44.0861 43.0113 42.7011 43.0113C41.3159 43.0113 40.3925 42.1117 39.925 41.3569C39.4374 40.5695 39.2051 39.615 39.2051 38.6729C39.2051 37.7305 39.4374 36.776 39.925 35.9886Z" fill="#472922"/>
<path d="M25.701 34.3342C24.316 34.3342 23.3926 35.2338 22.9251 35.9886C22.4374 36.776 22.2051 37.7305 22.2051 38.6729C22.2051 39.615 22.4374 40.5695 22.9251 41.3569C23.3926 42.1117 24.316 43.0113 25.701 43.0113C27.0861 43.0113 28.0095 42.1117 28.477 41.3569C28.9646 40.5695 29.197 39.615 29.197 38.6729C29.197 37.7305 28.9646 36.776 28.477 35.9886C28.0095 35.2338 27.0861 34.3342 25.701 34.3342Z" fill="#472922"/>
<path fill-rule="evenodd" clip-rule="evenodd" d="M17.4234 12.1951C15.6855 12.1951 13.6827 12.7014 12.0796 14.0825C10.4177 15.5143 9.41973 17.6855 9.41973 20.518V25.8305L9.41976 25.8388C9.42302 26.6717 9.5644 28.3382 10.0396 29.7311C10.195 30.187 10.4433 30.7914 10.8579 31.3365C10.0533 32.9317 9.6719 34.577 9.49859 36.1637C9.35389 37.4885 9.35193 38.8791 9.37497 40.1632C7.50202 40.8137 5.5628 41.619 4.66869 42.1964C3.6828 42.833 3.39975 44.1486 4.03646 45.1343C4.67316 46.1203 5.98854 46.4033 6.9744 45.7667C7.30425 45.5536 8.27739 45.1082 9.55752 44.6195C9.75268 45.9769 10.1482 47.2137 10.7006 48.3379C10.2589 48.6133 9.86862 48.8683 9.55814 49.0715C9.43928 49.1491 9.33213 49.2191 9.23826 49.2797C8.25237 49.9164 7.96932 51.2319 8.60603 52.2176C9.24274 53.2036 10.5581 53.4867 11.544 52.85C11.6605 52.7746 11.7847 52.6936 11.9157 52.608C12.2874 52.3655 12.7144 52.0867 13.1795 51.8017C14.8498 53.5088 16.9241 54.8265 19.0789 55.8176C24.1246 58.1387 30.1001 58.9451 34.1549 58.9451C38.2094 58.9451 44.1852 58.1387 49.2308 55.8176C51.3855 54.8265 53.4598 53.5088 55.1301 51.8017C55.5953 52.0867 56.0223 52.3655 56.3937 52.608C56.5249 52.6936 56.649 52.7746 56.7655 52.85C57.7515 53.4867 59.0667 53.2036 59.7036 52.2176C60.3403 51.2319 60.0572 49.9164 59.0712 49.2797C58.9775 49.2191 58.8704 49.1491 58.7514 49.0715C58.4408 48.8683 58.0507 48.6133 57.6092 48.3379C58.1615 47.2137 58.5573 45.9769 58.7522 44.6192C60.0329 45.1079 61.0064 45.5536 61.3365 45.7667C62.3222 46.4033 63.6377 46.1203 64.2744 45.1343C64.911 44.1486 64.628 42.833 63.6423 42.1964C62.7478 41.619 60.8081 40.8134 58.9347 40.1629C58.9579 38.8788 58.9559 37.4882 58.8111 36.1637C58.638 34.577 58.2564 32.9317 57.4517 31.3365C57.8665 30.7914 58.1147 30.187 58.2703 29.7311C58.7454 28.3382 58.8868 26.6717 58.8899 25.8388L58.8902 25.8305V20.5183C58.8902 17.6858 57.892 15.5147 56.2303 14.0829C54.6272 12.7017 52.6243 12.1954 50.8866 12.1954C49.7292 12.1954 48.5321 12.6395 47.5668 13.0756C46.5437 13.5378 45.4744 14.1385 44.5127 14.6923C44.3059 14.8113 44.105 14.9276 43.9098 15.0406L43.9041 15.0439C43.1561 15.4772 42.4923 15.8617 41.9007 16.1665C41.5332 16.3558 41.2479 16.4856 41.0354 16.5642C40.9458 16.5974 40.8886 16.6141 40.8591 16.6219C40.1412 16.618 39.6836 16.5593 39.0226 16.4746C38.8809 16.4565 38.7296 16.4371 38.5644 16.4168C37.5824 16.2961 36.3425 16.1798 34.1549 16.1798C31.9673 16.1798 30.7277 16.2961 29.7454 16.4168C29.5802 16.4371 29.4292 16.4565 29.2872 16.4746C28.6265 16.5593 28.1689 16.618 27.4506 16.6219C27.4213 16.6141 27.364 16.5974 27.2746 16.5642C27.0622 16.4856 26.7767 16.3558 26.4092 16.1664C25.8177 15.8616 25.154 15.4773 24.4059 15.0439C24.2089 14.9299 24.0061 14.8124 23.7973 14.6921C22.8355 14.1383 21.7663 13.5376 20.7431 13.0753C19.7779 12.6392 18.5806 12.1951 17.4234 12.1951ZM17.6134 50.0592C18.5598 50.7729 19.6502 51.4025 20.8551 51.9567C25.1926 53.9519 30.522 54.6951 34.1549 54.6951C37.7878 54.6951 43.117 53.9519 47.4546 51.9567C48.6596 51.4025 49.7499 50.7729 50.6962 50.0592C49.6977 49.8852 48.9387 49.0142 48.9387 47.9659C48.9387 46.7923 49.8901 45.8409 51.0637 45.8409C51.9907 45.8409 52.9382 46.0727 53.8177 46.3945C54.267 45.4542 54.543 44.4242 54.6187 43.2969C53.7752 43.0909 53.1926 43.0076 52.8926 43.0076C51.719 43.0076 50.7676 42.0561 50.7676 40.8826C50.7676 39.709 51.719 38.7576 52.8926 38.7576C53.4442 38.7576 54.0684 38.8403 54.6974 38.9627C54.6977 38.1804 54.6722 37.4123 54.5864 36.6252C54.3866 34.7966 53.869 33.1734 52.6475 31.7301C52.2106 31.2138 51.6672 30.7004 50.9852 30.1995C50.0391 29.505 49.8354 28.175 50.5302 27.229C51.2246 26.2831 52.5546 26.0793 53.5006 26.7739C53.8381 27.0217 54.1571 27.2764 54.458 27.5377C54.5827 26.8912 54.6382 26.2149 54.6402 25.8259V20.5183C54.6402 18.7466 54.0554 17.8188 53.4561 17.3027C52.7982 16.7359 51.8618 16.4454 50.8866 16.4454C50.6871 16.4454 50.1885 16.5547 49.3166 16.9486C48.5026 17.3163 47.5937 17.8224 46.6335 18.3753C46.4533 18.4791 46.2697 18.5855 46.0847 18.6927C45.3259 19.1323 44.5416 19.5868 43.8472 19.9445C43.4091 20.1701 42.9527 20.3862 42.5115 20.5496C42.1044 20.7005 41.5411 20.8722 40.9379 20.8722C39.8845 20.8722 39.1461 20.7766 38.4372 20.6849C38.3066 20.668 38.1768 20.6511 38.0462 20.6351C37.2282 20.5346 36.1618 20.4298 34.1549 20.4298C32.1483 20.4298 31.0816 20.5346 30.2636 20.6351C30.1333 20.6511 30.0035 20.6679 29.8726 20.6848C29.164 20.7766 28.4255 20.8722 27.3719 20.8722C26.7689 20.8722 26.2056 20.7005 25.7982 20.5496C25.357 20.3862 24.9006 20.1701 24.4626 19.9444C23.7683 19.5867 22.984 19.1322 22.2254 18.6926C22.0403 18.5853 21.8567 18.4789 21.6763 18.3751C20.7162 17.8222 19.807 17.3161 18.9931 16.9483C18.1212 16.5543 17.6227 16.4451 17.4234 16.4451C16.448 16.4451 15.5115 16.7356 14.8536 17.3024C14.2545 17.8185 13.6697 18.7463 13.6697 20.518V25.8259C13.6716 26.2149 13.727 26.8912 13.8517 27.5377C14.1528 27.2764 14.4717 27.0217 14.8092 26.7739C15.7552 26.0793 17.0851 26.2831 17.7797 27.2291C18.4743 28.175 18.2705 29.505 17.3245 30.1995C16.6425 30.7004 16.0991 31.2138 15.6623 31.7301C14.4409 33.1734 13.9232 34.7966 13.7235 36.6252C13.6375 37.4123 13.612 38.1804 13.6122 38.963C14.2417 38.8406 14.8662 38.7576 15.4183 38.7576C16.5919 38.7576 17.5433 39.709 17.5433 40.8826C17.5433 42.0561 16.5919 43.0076 15.4183 43.0076C15.118 43.0076 14.5352 43.0909 13.6911 43.2969C13.7669 44.4242 14.0427 45.4541 14.4921 46.3942C15.3716 46.0727 16.3189 45.8409 17.246 45.8409C18.4196 45.8409 19.371 46.7923 19.371 47.9659C19.371 49.0142 18.6119 49.8852 17.6134 50.0592Z" fill="#472922"/>
</svg>
