<svg width="32" height="32" viewBox="0 0 32 32" fill="none" xmlns="http://www.w3.org/2000/svg">
<path d="M7.90576 10.5312C9.28402 10.5312 10.4015 11.6487 10.4015 13.0264C10.4015 14.4053 9.28429 15.5221 7.90576 15.5221C6.52743 15.5221 5.41064 14.4055 5.41064 13.0264C5.41064 11.6485 6.52771 10.5312 7.90576 10.5312Z" stroke="#FFA101" stroke-width="1.5"/>
<path d="M21.5986 13.6602C21.5986 12.2824 22.716 11.165 24.0938 11.165C25.4722 11.165 26.5892 12.2824 26.5892 13.6602C26.5892 15.039 25.4721 16.1553 24.0938 16.1553C22.7158 16.1553 21.5986 15.039 21.5986 13.6602Z" stroke="#FFA101" stroke-width="1.5"/>
<path d="M20.5659 17.7477L20.564 17.7453C20.3721 17.5088 20.0834 17.2153 19.7268 16.887L19.6799 16.8439L19.641 16.7934C18.7972 15.6999 17.4816 14.9966 16.0002 14.9966C14.6814 14.9966 13.4955 15.5539 12.6544 16.4471L12.6288 16.4743L12.6007 16.4988C12.0534 16.975 11.6014 17.4108 11.3305 17.7452L11.328 17.7484L11.328 17.7483L11.118 18.0047L11.1177 18.0051C10.1461 19.1897 9.09077 20.4931 9.09868 22.7267L20.5659 17.7477ZM20.5659 17.7477L20.7758 18.0043L20.7764 18.005C21.7477 19.1897 22.8034 20.4931 22.7955 22.7266C22.7881 24.6571 21.2151 26.2259 19.2975 26.2259C18.1987 26.2259 17.1955 25.7199 16.5421 24.8684L15.9473 24.0934M20.5659 17.7477L15.9473 24.0934M15.9473 24.0934L15.3523 24.8682M15.9473 24.0934L15.3523 24.8682M15.3523 24.8682C14.698 25.7201 13.6949 26.2259 12.5976 26.2259C10.679 26.2259 9.10586 24.6567 9.09868 22.7268L15.3523 24.8682Z" stroke="#FFA101" stroke-width="1.5"/>
<path d="M19.0509 8.60041C19.0509 10.1612 17.7857 11.4264 16.2249 11.4264C14.6642 11.4264 13.3989 10.1612 13.3989 8.60041C13.3989 7.03966 14.6642 5.77441 16.2249 5.77441C17.7857 5.77441 19.0509 7.03966 19.0509 8.60041Z" stroke="#FFA101" stroke-width="1.5"/>
</svg>
