<svg width="68" height="69" viewBox="0 0 68 69" fill="none" xmlns="http://www.w3.org/2000/svg">
<path fill-rule="evenodd" clip-rule="evenodd" d="M53.4288 13.7181C52.6301 12.9193 51.169 12.1314 49.5382 11.5306C47.8094 10.8936 45.5909 10.3559 43.077 10.2362C38.7507 10.0302 33.5853 11.0703 28.6522 14.8745C28.5753 14.9036 28.4995 14.9368 28.4243 14.9744L21.5889 18.3921C20.3951 18.9889 19.9113 20.4406 20.5082 21.6344C20.8219 22.2618 21.3717 22.6931 21.9961 22.8745C20.4579 25.9188 19.4841 29.3677 19.1495 32.8807C18.9696 34.7693 18.8393 37.5444 18.704 40.4243C18.6469 41.6394 18.5889 42.8743 18.5259 44.0682C17.0347 44.1863 15.6562 44.3296 14.5305 44.5123C13.3434 44.7047 12.0124 44.9398 11.0547 45.7284C10.6467 46.0646 10 46.7826 10 47.8949C10 50.1265 12.012 52.1896 13.4847 53.6623C14.9574 55.135 17.0204 57.1469 19.252 57.1469C20.3643 57.1469 21.0825 56.5005 21.4185 56.0923C22.2072 55.1346 22.4423 53.8035 22.6348 52.6166C22.8173 51.4907 22.9606 50.1122 23.0789 48.6212C24.273 48.5581 25.5071 48.5001 26.7226 48.443C29.6024 48.3077 32.3777 48.1775 34.2664 47.9974C37.7792 47.6629 41.2283 46.689 44.2726 45.1508C44.4541 45.7753 44.8854 46.3251 45.5128 46.639C46.7066 47.2359 48.1583 46.7519 48.755 45.5583L52.1729 38.7227C52.2103 38.6476 52.2437 38.5712 52.2729 38.4944C56.0768 33.5612 57.1169 28.3961 56.9108 24.0698C56.7911 21.5562 56.2534 19.3377 55.6164 17.6087C55.0156 15.9779 54.2275 14.5169 53.4288 13.7181ZM26.722 43.6037C25.6328 43.6544 24.5092 43.7066 23.3824 43.7646C23.4403 42.6377 23.4926 41.5142 23.5433 40.425C23.6711 37.677 23.7888 35.1478 23.9611 33.3389C24.4463 28.2441 26.5088 23.5498 29.505 20.5535C34.0953 15.9633 38.96 14.8789 42.8472 15.064C44.8195 15.158 46.5524 15.5815 47.8674 16.0659C48.5957 16.3343 49.392 16.6425 50.0066 17.1327L50.0109 17.1361L50.0143 17.1404C50.5044 17.7551 50.8128 18.5511 51.081 19.2796C51.5656 20.5945 51.989 22.3277 52.083 24.2997C52.2681 28.187 51.1837 33.0518 46.5935 37.642C43.5971 40.6382 38.903 42.7006 33.8079 43.1858C31.9993 43.3581 29.47 43.4758 26.722 43.6037ZM15.9253 49.1912C16.5917 49.1004 17.3584 49.0192 18.2018 48.9452C18.1278 49.7886 18.0465 50.5552 17.9558 51.2217C17.6125 50.9281 17.2551 50.5973 16.9024 50.2447C16.5497 49.8918 16.2189 49.5344 15.9253 49.1912ZM39.7582 27.3891C41.1739 28.8047 43.469 28.8047 44.8847 27.3891C46.3004 25.9734 46.3004 23.6782 44.8847 22.2626C43.469 20.8469 41.1739 20.8469 39.7582 22.2626C38.3425 23.6782 38.3425 25.9734 39.7582 27.3891Z" fill="#472922"/>
</svg>
