<svg width="69" height="69" viewBox="0 0 69 69" fill="none" xmlns="http://www.w3.org/2000/svg">
<g clip-path="url(#clip0_764_4722)">
<path d="M34.1531 61.9922C25.8656 61.9922 10.9906 55.7234 10.9906 43.3984C10.9906 42.8672 10.9906 42.2297 10.9906 41.5922C10.8844 36.7047 10.7781 29.3734 13.7531 25.5484C14.3906 24.8047 15.1344 24.0609 15.9844 23.3172C16.9406 22.5734 18.2156 22.7859 18.9594 23.6359C19.7031 24.5922 19.4906 25.8672 18.6406 26.6109C18.0031 27.0359 17.5781 27.5672 17.1531 28.0984C15.0281 30.7547 15.2406 37.7672 15.2406 41.4859C15.2406 42.1234 15.2406 42.7609 15.2406 43.3984C15.2406 48.6047 18.9594 52.0047 22.0406 54.0234C26.1844 56.6797 31.0719 57.7422 34.1531 57.7422C37.1281 57.7422 42.1219 56.5734 46.2656 54.0234C49.3469 52.1109 53.0656 48.6047 53.0656 43.3984C53.0656 42.8672 53.0656 42.2297 53.0656 41.4859C53.1719 37.7672 53.2781 30.7547 51.1531 28.0984C50.7281 27.5672 50.1969 27.0359 49.6656 26.6109C48.7094 25.8672 48.6031 24.5922 49.3469 23.6359C50.0906 22.6797 51.3656 22.5734 52.3219 23.3172C53.1719 23.9547 53.9156 24.6984 54.5531 25.5484C57.5281 29.3734 57.4219 36.7047 57.3156 41.5922C57.3156 42.2297 57.3156 42.8672 57.3156 43.3984C57.3156 55.8297 42.4406 61.9922 34.1531 61.9922Z" fill="#472922"/>
<path d="M34.2594 50.0943C31.9219 50.0943 30.3281 48.8193 30.3281 47.1193C30.3281 45.4193 32.0281 44.1443 34.2594 44.1443C36.5969 44.1443 38.1906 45.4193 38.1906 47.1193C38.1906 48.8193 36.4906 50.0943 34.2594 50.0943Z" fill="#472922"/>
<path d="M42.6537 41.171C41.5912 41.171 40.5287 40.5335 39.8912 39.471C39.4662 38.7272 39.1475 37.771 39.1475 36.8147C39.1475 35.8585 39.36 34.9022 39.8912 34.1585C40.5287 33.096 41.5912 32.4585 42.6537 32.4585C43.7162 32.4585 44.7787 33.096 45.4162 34.1585C45.8412 34.9022 46.16 35.8585 46.16 36.8147C46.16 37.771 45.9475 38.7272 45.4162 39.471C44.7787 40.6397 43.8225 41.171 42.6537 41.171Z" fill="#472922"/>
<path d="M25.6537 41.171C24.5912 41.171 23.5287 40.5335 22.8912 39.471C22.4662 38.7272 22.1475 37.771 22.1475 36.8147C22.1475 35.8585 22.36 34.9022 22.8912 34.1585C23.5287 33.096 24.5912 32.4585 25.6537 32.4585C26.7162 32.4585 27.7787 33.096 28.4162 34.1585C28.8412 34.9022 29.16 35.8585 29.16 36.8147C29.16 37.771 28.9475 38.7272 28.4162 39.471C27.7787 40.6397 26.8225 41.171 25.6537 41.171Z" fill="#472922"/>
<path d="M10.2471 38.7268C9.82207 38.7268 9.39707 38.7268 8.97207 38.6205C5.35957 37.7705 4.19082 33.733 3.65957 32.2455C1.74707 26.083 6.63457 18.5393 11.0971 13.333C12.9033 11.3143 15.1346 9.82676 17.7908 9.08301L20.1283 8.44551C24.6971 7.17051 29.3721 6.42676 34.0471 6.42676H34.1533H34.2596H34.3658C39.0408 6.53301 43.7158 7.17051 48.2846 8.44551L50.6221 9.08301C53.2783 9.82676 55.6158 11.3143 57.3158 13.4393C61.7783 18.6455 66.6658 26.1893 64.7533 32.3518C64.3283 33.8393 63.0533 37.8768 59.4408 38.7268C57.9533 39.0455 56.3596 38.833 54.8721 37.983L56.8908 34.2643C57.3158 34.4768 57.9533 34.7955 58.4846 34.583C59.6533 34.158 60.3971 31.7143 60.7158 30.9705C61.7783 27.6768 59.3346 22.258 54.1283 16.0955C52.8533 14.608 51.2596 13.6518 49.4533 13.1205L47.1158 12.483C42.8658 11.3143 38.6158 10.6768 34.2596 10.5705C29.9033 10.6768 25.5471 11.3143 21.4033 12.483L19.0658 13.1205C17.2596 13.6518 15.6658 14.608 14.4971 16.0955C9.29082 22.258 6.84707 27.6768 7.90957 30.9705C8.12207 31.8205 8.97207 34.2643 10.1408 34.4768C10.6721 34.583 11.3096 34.3705 11.7346 34.158L13.7533 37.8768C12.3721 38.408 11.3096 38.7268 10.2471 38.7268Z" fill="#472922"/>
</g>
<defs>
<clipPath id="clip0_764_4722">
<rect width="68" height="68" fill="white" transform="translate(0.15332 0.15625)"/>
</clipPath>
</defs>
</svg>
