<svg width="144" height="241" viewBox="0 0 144 241" fill="none" xmlns="http://www.w3.org/2000/svg">
<circle cx="72" cy="169" r="72" fill="#FAE6B1"/>
<path d="M46 168.5L67 189.5L108.5 148" stroke="#FFA101" stroke-width="10" stroke-linecap="round" stroke-linejoin="round"/>
<path d="M122.386 116.567C120.041 117.856 117.29 118.525 114.524 118.624C107.805 118.866 100.981 115.749 99.5892 109.992C99.0401 107.718 99.3352 105.033 100.825 101.98C102.06 99.4411 104.103 97.1977 106.606 95.847C107.817 95.1866 109.098 94.6592 110.424 94.2741C125.433 89.9767 135.436 109.396 122.386 116.567Z" fill="#FFA101"/>
<path d="M113.786 119.999C110.406 119.999 107.1 119.211 104.4 117.754C101.128 115.982 99.0016 113.413 98.252 110.308C97.5875 107.567 98.0351 104.566 99.581 101.386C100.985 98.4965 103.245 96.1032 105.943 94.6489C107.242 93.9421 108.615 93.3772 110.037 92.9643C118.847 90.4414 126.1 95.4462 128.709 101.687C129.911 104.567 130.119 107.663 129.291 110.41C128.364 113.481 126.206 116.022 123.047 117.757C120.597 119.103 117.666 119.873 114.569 119.982C114.311 119.993 114.05 119.999 113.786 119.999ZM114.617 95.0319C113.324 95.0342 112.038 95.2178 110.796 95.5771C109.566 95.9368 108.379 96.4281 107.256 97.0423C105.092 98.209 103.196 100.223 102.056 102.569C100.793 105.167 100.409 107.555 100.924 109.669C102.196 114.926 108.705 117.466 114.474 117.258C117.143 117.162 119.649 116.51 121.722 115.37C127.564 112.16 127.772 106.557 126.176 102.735C124.422 98.5415 120.109 95.0319 114.62 95.0319H114.617Z" fill="#472922"/>
<path d="M47.1552 110.166C45.6683 115.813 38.9177 118.863 32.2646 118.623C29.4982 118.525 26.7469 117.856 24.402 116.566C11.5557 109.507 21.0507 90.5771 35.6735 94.0909C37.2487 94.4795 38.7661 95.0701 40.1877 95.8477C42.6905 97.1971 44.7347 99.4405 45.969 101.981C47.4915 105.112 47.7647 107.856 47.1552 110.166Z" fill="#FFA101"/>
<path d="M32.9977 119.999C32.7369 119.999 32.476 119.999 32.2152 119.984C29.1179 119.875 26.1868 119.105 23.7375 117.758C20.6347 116.053 18.493 113.567 17.5457 110.566C16.6959 107.885 16.8428 104.841 17.9576 101.992C20.3752 95.8336 27.3469 90.687 35.9975 92.7656C37.6882 93.1828 39.3173 93.816 40.8439 94.6492C43.543 96.1048 45.8028 98.4968 47.2073 101.386C48.7917 104.647 49.2214 107.716 48.4855 110.51C47.6837 113.555 45.5434 116.076 42.2964 117.803C39.6124 119.229 36.338 119.999 32.9977 119.999ZM32.1603 95.0281C26.5506 95.0281 22.193 98.7081 20.5153 102.981C18.9721 106.915 19.3566 112.236 25.0678 115.373C27.1409 116.513 29.6465 117.165 32.314 117.261C38.0034 117.464 44.4698 114.977 45.8276 109.82C46.3946 107.671 46.0266 105.233 44.7292 102.572C43.5883 100.226 41.6937 98.2106 39.5287 97.0453C38.2118 96.323 36.8061 95.7732 35.3468 95.4097C34.3037 95.1573 33.2339 95.0292 32.1603 95.0281Z" fill="#472922"/>
<path d="M106.426 117.669C106.092 117.669 105.769 117.547 105.518 117.327C105.268 117.107 105.107 116.803 105.066 116.474C104.975 115.552 104.941 114.626 104.966 113.7C104.966 113.515 104.966 113.331 104.966 113.148C104.966 112.787 105.11 112.44 105.368 112.184C105.625 111.929 105.974 111.785 106.338 111.785C106.703 111.785 107.052 111.929 107.309 112.184C107.567 112.44 107.711 112.787 107.711 113.148C107.711 113.335 107.711 113.524 107.711 113.715C107.69 114.523 107.716 115.332 107.791 116.137C107.813 116.315 107.8 116.495 107.752 116.668C107.704 116.84 107.623 117.002 107.512 117.143C107.401 117.284 107.263 117.402 107.106 117.491C106.95 117.579 106.777 117.636 106.598 117.658C106.541 117.665 106.484 117.669 106.426 117.669Z" fill="#472922"/>
<path d="M40.362 117.669C40.3047 117.669 40.2474 117.665 40.1904 117.658C40.0115 117.636 39.8387 117.579 39.6819 117.491C39.525 117.402 39.3873 117.284 39.2765 117.143C39.1657 117.002 39.0841 116.84 39.0362 116.668C38.9883 116.495 38.9751 116.315 38.9974 116.137C39.0729 115.332 39.0995 114.523 39.077 113.715C39.077 113.524 39.077 113.335 39.077 113.148C39.077 112.787 39.2217 112.44 39.4791 112.184C39.7366 111.929 40.0858 111.785 40.4499 111.785C40.814 111.785 41.1632 111.929 41.4207 112.184C41.6782 112.44 41.8228 112.787 41.8228 113.148C41.8228 113.331 41.8228 113.515 41.8228 113.7C41.8486 114.626 41.8151 115.552 41.7226 116.474C41.6815 116.803 41.5205 117.107 41.27 117.327C41.0194 117.547 40.6966 117.669 40.362 117.669Z" fill="#472922"/>
<path d="M114.532 119.999C114.277 119.999 114.027 119.929 113.81 119.796C113.593 119.663 113.417 119.473 113.303 119.246C112.762 118.174 112.689 116.769 112.625 115.528C112.597 115.02 112.573 114.539 112.519 114.165C112.494 113.988 112.504 113.808 112.548 113.634C112.593 113.461 112.672 113.298 112.78 113.155C112.888 113.011 113.024 112.891 113.179 112.8C113.334 112.708 113.506 112.648 113.684 112.623C113.863 112.598 114.044 112.608 114.219 112.652C114.394 112.696 114.558 112.775 114.702 112.882C114.846 112.989 114.968 113.124 115.06 113.278C115.152 113.432 115.212 113.602 115.238 113.78C115.309 114.274 115.336 114.814 115.367 115.385C115.415 116.311 115.475 117.462 115.759 118.025C115.864 118.233 115.913 118.464 115.903 118.696C115.892 118.928 115.822 119.153 115.699 119.351C115.576 119.548 115.404 119.712 115.2 119.825C114.996 119.938 114.766 119.997 114.532 119.997V119.999Z" fill="#472922"/>
<path d="M32.2578 120C32.0246 120 31.7954 119.94 31.5918 119.827C31.3882 119.715 31.2169 119.552 31.0941 119.355C30.9713 119.158 30.901 118.934 30.8899 118.703C30.8787 118.471 30.9271 118.241 31.0304 118.034C31.3132 117.471 31.3736 116.32 31.4217 115.395C31.4519 114.824 31.4807 114.283 31.5589 113.788C31.5796 113.607 31.6366 113.432 31.7267 113.273C31.8168 113.114 31.9381 112.974 32.0835 112.863C32.2288 112.751 32.3952 112.67 32.5728 112.623C32.7504 112.577 32.9357 112.566 33.1175 112.592C33.2994 112.618 33.4741 112.679 33.6315 112.774C33.7889 112.868 33.9256 112.992 34.0336 113.14C34.1416 113.287 34.2187 113.455 34.2604 113.632C34.302 113.81 34.3073 113.994 34.2759 114.174C34.2224 114.547 34.1977 115.027 34.1716 115.537C34.1071 116.776 34.0343 118.181 33.4934 119.253C33.3779 119.48 33.201 119.67 32.9827 119.802C32.7644 119.934 32.5133 120.002 32.2578 120Z" fill="#472922"/>
<path d="M121.887 116.843C121.819 116.843 121.751 116.838 121.683 116.829C121.505 116.803 121.333 116.742 121.179 116.65C121.024 116.558 120.889 116.437 120.782 116.293C120.674 116.149 120.596 115.986 120.552 115.812C120.509 115.639 120.5 115.458 120.526 115.281C120.582 114.835 120.608 114.386 120.606 113.937C120.603 113.378 120.638 112.819 120.71 112.265C120.764 111.907 120.958 111.585 121.251 111.37C121.543 111.154 121.91 111.063 122.27 111.116C122.631 111.17 122.955 111.363 123.172 111.653C123.389 111.944 123.481 112.308 123.427 112.665C123.373 113.101 123.347 113.539 123.35 113.978C123.353 114.547 123.317 115.116 123.243 115.68C123.195 116.003 123.031 116.298 122.782 116.512C122.533 116.725 122.215 116.843 121.887 116.843Z" fill="#472922"/>
<path d="M24.9086 116.843C24.5797 116.843 24.2619 116.725 24.013 116.512C23.764 116.298 23.6005 116.003 23.5522 115.68C23.4767 115.116 23.4404 114.546 23.4437 113.977C23.4472 113.538 23.422 113.099 23.3682 112.664C23.3228 112.31 23.419 111.953 23.636 111.669C23.853 111.384 24.1736 111.196 24.5289 111.144C24.8843 111.091 25.2462 111.179 25.5369 111.389C25.8276 111.599 26.0239 111.913 26.0838 112.265C26.1595 112.821 26.1967 113.381 26.195 113.942C26.1913 114.392 26.2175 114.842 26.2733 115.288C26.3264 115.645 26.2344 116.009 26.0177 116.299C25.8009 116.589 25.4771 116.782 25.1173 116.835C25.0481 116.843 24.9783 116.846 24.9086 116.843Z" fill="#472922"/>
<path d="M110.61 91.3167C110.611 92.3048 110.547 93.2918 110.419 94.2716C109.092 94.6567 107.812 95.1841 106.601 95.8445C104.098 97.1939 102.054 99.4373 100.819 101.978C99.3352 105.031 99.0345 107.716 99.5837 109.989C92.888 114.138 83.658 116.304 73.3886 116.304C63.2607 116.304 53.9867 114.2 47.1497 110.164C47.7592 107.854 47.486 105.11 45.9635 101.978C44.7278 99.4387 42.685 97.1952 40.1822 95.8445C38.7606 95.0674 37.2431 94.4773 35.668 94.089C35.5516 93.1695 35.4947 92.2435 35.4978 91.3167C35.4978 91.2786 35.4978 91.2404 35.4978 91.2022C35.4978 91.1123 35.4978 91.0223 35.4978 90.9296C35.62 76.8352 45.0519 34.2069 59.3301 60.5013C62.2643 59.3337 65.3327 58.5307 68.4654 58.1107C72.1917 57.6113 75.9731 57.6817 79.6779 58.3192C81.1437 58.5715 82.5929 58.911 84.0177 59.336C88.5483 52.6493 95.4362 45.998 100.3 54.6201C105.534 63.8992 109.636 77.8738 110.467 88.7135C110.539 89.6048 110.586 90.4744 110.61 91.3167Z" fill="#FFA101"/>
<path d="M73.3942 117.669C62.9381 117.669 53.3703 115.42 46.4536 111.337C46.1979 111.186 45.9986 110.956 45.8857 110.683C45.7727 110.41 45.7524 110.107 45.8276 109.821C46.3946 107.672 46.0266 105.234 44.7292 102.573C43.5884 100.227 41.6938 98.2116 39.5287 97.0462C38.2118 96.3239 36.8061 95.7742 35.3468 95.4107C35.0767 95.3459 34.8327 95.2013 34.6471 94.9958C34.4615 94.7905 34.3431 94.534 34.3075 94.2603C34.184 93.2847 34.123 92.3023 34.1249 91.319C34.1249 91.2741 34.1249 91.2291 34.1249 91.1827C34.1249 91.0942 34.1249 91.0042 34.1249 90.9101C34.1675 86.013 35.3756 76.7707 37.9279 68.0722C39.2541 63.5512 40.7533 59.8331 42.383 57.0226C44.3929 53.5552 46.6115 51.5026 48.9729 50.9206C52.6962 50.0047 56.3866 52.657 59.9479 58.8081C62.6423 57.8284 65.4362 57.1429 68.2801 56.7637C72.1446 56.2456 76.0663 56.3186 79.9086 56.9804C81.0948 57.1848 82.2796 57.4451 83.4425 57.76C86.4148 53.562 90.6735 48.9906 95.06 49.1733C97.5957 49.2769 99.7594 50.8879 101.495 53.9614C106.72 63.2296 110.968 77.4781 111.831 88.6163C111.903 89.5213 111.951 90.4208 111.976 91.2877V91.319C111.977 92.3672 111.91 93.4144 111.774 94.4539C111.739 94.7172 111.627 94.9647 111.453 95.1659C111.278 95.3672 111.048 95.5133 110.791 95.5865C109.563 95.9442 108.378 96.4327 107.256 97.0435C105.092 98.2102 103.196 100.225 102.056 102.57C100.793 105.168 100.409 107.556 100.924 109.67C100.991 109.948 100.969 110.24 100.86 110.505C100.751 110.769 100.561 110.993 100.317 111.145C93.4317 115.414 84.122 117.669 73.3942 117.669ZM48.7011 109.475C55.1304 113.007 63.8497 114.943 73.3942 114.943C83.0471 114.943 91.7595 112.949 98.0639 109.313C97.7138 106.846 98.2232 104.185 99.5837 101.387C100.988 98.4978 103.248 96.1058 105.946 94.6501C106.973 94.0934 108.046 93.6229 109.153 93.2436C109.208 92.618 109.237 91.9801 109.237 91.3354C109.215 90.5176 109.168 89.6739 109.099 88.8194C108.266 78.0314 104.157 64.2423 99.1046 55.2903C97.869 53.0973 96.4713 51.9551 94.9543 51.8924C92.3403 51.7929 88.768 54.7778 85.16 60.107C84.9964 60.3488 84.7591 60.5321 84.4828 60.6303C84.2066 60.7284 83.906 60.7361 83.6251 60.6522C78.7762 59.2021 73.6708 58.7996 68.6521 59.4719C65.631 59.8771 62.6719 60.6517 59.8422 61.778C59.5292 61.902 59.1811 61.9072 58.8644 61.7929C58.5477 61.6785 58.2844 61.4525 58.1247 61.1579C56.0118 57.2679 52.8253 52.792 49.6401 53.577C46.4934 54.3512 43.1875 59.9148 40.5666 68.8423C38.0885 77.2927 36.9147 86.2256 36.8735 90.951C36.8735 91.0451 36.8735 91.1282 36.8735 91.2114V91.2618C36.8735 91.2822 36.8735 91.304 36.8735 91.3259C36.8735 91.8983 36.8968 92.468 36.9435 93.0255C38.2971 93.4367 39.6045 93.9847 40.8453 94.661C43.5444 96.1167 45.8042 98.5087 47.2087 101.398C48.5967 104.25 49.0978 106.965 48.7011 109.475Z" fill="#472922"/>
<path d="M76.4132 96.5414C76.0233 99.3586 74.9607 102.619 72.8601 102.698C70.6456 102.78 69.4567 98.4482 69.4553 97.1097C69.797 96.9258 70.1263 96.72 70.4411 96.4937C70.9394 96.1352 71.7041 95.267 71.9746 94.685C71.9856 94.6591 73.0537 92.6787 73.0537 93.1953C73.4038 94.5801 74.7753 95.8149 76.4132 96.5414Z" fill="#FAE6B1"/>
<path d="M86.4972 21.2482C86.2226 26.6197 83.2461 31.3819 80.3644 35.986C75.1007 44.3941 73.563 48.0196 78.3449 52.7669C79.063 53.4795 79.568 54.3759 79.8038 55.3564C80.0396 56.3369 79.997 57.3631 79.6807 58.321C75.9758 57.6834 72.1945 57.6131 68.4682 58.1124C65.0153 53.7019 63.7879 48.8102 64.8176 43.5287C65.7786 38.6301 68.5698 34.1651 71.0355 30.2261C73.18 26.7982 75.3986 23.2545 75.5276 20.6975C75.6883 17.5082 74.5666 15.0399 72.2807 13.5583C69.7271 11.9037 66.2523 11.8123 63.2099 13.3225C62.5638 13.6538 61.8578 13.8544 61.1329 13.9126C60.408 13.9709 59.6787 13.8856 58.9873 13.6617C58.2959 13.4379 57.6562 13.08 57.1053 12.6087C56.5543 12.1374 56.1032 11.5622 55.778 10.9164C55.4528 10.2706 55.26 9.56715 55.2109 8.84683C55.1617 8.1265 55.2572 7.40365 55.4918 6.72025C55.7263 6.03685 56.0952 5.4065 56.5771 4.8658C57.0591 4.32509 57.6443 3.88479 58.299 3.57046C64.819 0.338859 72.4771 0.668697 78.2858 4.43458C83.8571 8.04918 86.8528 14.173 86.4972 21.2482Z" fill="#FFA101"/>
<path d="M79.6821 59.6849C79.6029 59.6848 79.5239 59.678 79.446 59.6645C75.8794 59.0511 72.2393 58.9835 68.6522 59.4641C68.4141 59.496 68.1718 59.4653 67.9495 59.3752C67.7271 59.285 67.5325 59.1385 67.385 58.9503C63.6781 54.218 62.3643 48.9447 63.4708 43.2761C64.4758 38.1309 67.341 33.5527 69.8686 29.5101L71.0424 30.2175L69.8768 29.4978C71.8304 26.3739 74.0449 22.8343 74.1575 20.6317C74.2948 17.9153 73.4093 15.9199 71.5298 14.7014C69.3839 13.3112 66.4308 13.2499 63.8237 14.5433C62.2002 15.3129 60.3373 15.419 58.6359 14.8388C56.9344 14.2585 55.5304 13.0384 54.726 11.441C53.9215 9.84347 53.7808 7.99631 54.3343 6.29693C54.8878 4.59755 56.0911 3.18179 57.6854 2.35429C64.6364 -1.0913 72.8203 -0.73556 79.0368 3.29474C85.0309 7.18057 88.249 13.7501 87.8687 21.3173C87.5804 27.0418 84.5051 31.9485 81.5314 36.7066C76.1949 45.2293 75.378 47.8952 79.3155 51.8042C80.2153 52.6929 80.8482 53.8126 81.1433 55.0382C81.4384 56.2637 81.3841 57.5465 80.9864 58.7431C80.8968 59.0166 80.7225 59.255 80.4882 59.4242C80.2539 59.5933 79.9718 59.6846 79.6821 59.6849ZM73.3942 56.4261C75.1287 56.4266 76.8612 56.5441 78.5797 56.7777C78.6016 56.2154 78.5057 55.6548 78.2983 55.1311C78.0908 54.6075 77.7761 54.1323 77.3742 53.7355C71.6492 48.052 74.1987 43.257 79.1988 35.2714C81.9886 30.8145 84.8731 26.2049 85.1257 21.1851C85.4565 14.6115 82.6901 8.91836 77.5349 5.58044C72.1339 2.07488 64.9975 1.77094 58.9141 4.79537C57.9458 5.28518 57.2117 6.13508 56.8718 7.15989C56.5319 8.18469 56.6138 9.30133 57.0996 10.2665C57.5854 11.2316 58.4358 11.967 59.4654 12.3124C60.495 12.6578 61.6204 12.5852 62.5963 12.1104C66.0725 10.3849 70.0704 10.5049 73.0304 12.4239C75.7473 14.1849 77.0846 17.0716 76.8978 20.7721C76.7509 23.678 74.4417 27.3703 72.208 30.9399L72.1998 30.9535C69.7972 34.7916 67.0733 39.1436 66.159 43.794C65.257 48.4159 66.2413 52.7406 69.0833 56.6632C70.5146 56.5035 71.9539 56.4243 73.3942 56.4261Z" fill="#472922"/>
<path d="M61.7258 91.9719C60.8395 91.9719 59.9896 91.6223 59.3629 91.0002C58.7362 90.378 58.3842 89.5342 58.3842 88.6544V88.2932C58.4019 87.4252 58.7617 86.5986 59.3863 85.991C60.0109 85.3833 60.8506 85.043 61.7251 85.043C62.5997 85.043 63.4393 85.3833 64.064 85.991C64.6886 86.5986 65.0484 87.4252 65.0661 88.2932V88.6544C65.0663 89.09 64.98 89.5213 64.8122 89.9238C64.6444 90.3263 64.3984 90.692 64.0882 91.0001C63.778 91.3082 63.4098 91.5526 63.0044 91.7193C62.599 91.886 62.1646 91.9719 61.7258 91.9719Z" fill="#472922"/>
<path d="M61.7258 91.6114C61.287 91.6114 60.8525 91.5256 60.447 91.3589C60.0416 91.1922 59.6732 90.9478 59.3629 90.6398C59.0526 90.3317 58.8065 89.966 58.6385 89.5635C58.4706 89.161 58.3842 88.7296 58.3842 88.294V88.2558C58.3752 87.8146 58.4549 87.376 58.6188 86.9658C58.7826 86.5555 59.0273 86.1819 59.3384 85.8667C59.6495 85.5514 60.0209 85.301 60.4307 85.1301C60.8405 84.9591 61.2806 84.8711 61.7251 84.8711C62.1697 84.8711 62.6097 84.9591 63.0196 85.1301C63.4294 85.301 63.8007 85.5514 64.1119 85.8667C64.423 86.1819 64.6677 86.5555 64.8315 86.9658C64.9954 87.376 65.0751 87.8146 65.0661 88.2558V88.294C65.0663 88.7296 64.98 89.1609 64.8122 89.5634C64.6445 89.9659 64.3984 90.3316 64.0882 90.6397C63.7781 90.9478 63.4098 91.1922 63.0044 91.3589C62.5991 91.5256 62.1646 91.6114 61.7258 91.6114Z" fill="#472922"/>
<path d="M83.0484 91.8307C82.6096 91.8307 82.1751 91.7449 81.7696 91.5782C81.3642 91.4115 80.9958 91.1671 80.6855 90.8591C80.3752 90.551 80.1291 90.1853 79.9612 89.7828C79.7932 89.3803 79.7068 88.9489 79.7068 88.5132V88.4737C79.7068 88.0381 79.7932 87.6067 79.9612 87.2042C80.1291 86.8017 80.3752 86.436 80.6855 86.1279C80.9958 85.8199 81.3642 85.5755 81.7696 85.4088C82.1751 85.2421 82.6096 85.1562 83.0484 85.1562C83.4873 85.1562 83.9218 85.2421 84.3272 85.4088C84.7327 85.5755 85.101 85.8199 85.4113 86.1279C85.7217 86.436 85.9678 86.8017 86.1357 87.2042C86.3037 87.6067 86.3901 88.0381 86.3901 88.4737V88.5132C86.3901 88.9489 86.3037 89.3803 86.1357 89.7828C85.9678 90.1853 85.7217 90.551 85.4113 90.8591C85.101 91.1671 84.7327 91.4115 84.3272 91.5782C83.9218 91.7449 83.4873 91.8307 83.0484 91.8307Z" fill="#472922"/>
<path d="M72.4619 94.3507C71.9937 94.354 71.5381 94.2003 71.1688 93.9145C70.7995 93.6288 70.5381 93.2277 70.427 92.7761C70.3158 92.3246 70.3613 91.849 70.5562 91.4264C70.7511 91.0037 71.084 90.6587 71.5009 90.4472L71.597 90.3981C72.0886 90.1487 72.6598 90.1033 73.185 90.272C73.7103 90.4407 74.1465 90.8097 74.3977 91.2977C74.649 91.7857 74.6947 92.3528 74.5247 92.8742C74.3548 93.3956 73.9832 93.8287 73.4916 94.0781L73.3969 94.1258C73.1073 94.2725 72.7871 94.3496 72.4619 94.3507Z" fill="#472922"/>
<path d="M66.3374 99.3374C65.5843 99.3461 64.837 99.2046 64.1399 98.9213C63.4428 98.638 62.81 98.2187 62.2791 97.6882C62.1517 97.5614 62.0506 97.4109 61.9817 97.2453C61.9128 97.0798 61.8775 96.9023 61.8777 96.7232C61.8779 96.544 61.9136 96.3667 61.9828 96.2012C62.0521 96.0358 62.1535 95.8855 62.2812 95.759C62.4089 95.6324 62.5605 95.5321 62.7273 95.4637C62.8941 95.3953 63.0728 95.3602 63.2533 95.3604C63.4338 95.3606 63.6124 95.3961 63.7791 95.4648C63.9457 95.5335 64.0971 95.6342 64.2245 95.761C66.1754 97.6978 69.0778 95.7855 69.6393 95.3821C69.9825 95.1368 70.5742 94.4457 70.7307 94.1064C70.7774 94.0069 71.0493 93.5176 71.2593 93.17C71.6712 92.4817 72.2382 91.5344 73.3187 91.7716C73.6407 91.8441 73.9277 92.0247 74.1311 92.283C74.3344 92.5412 74.4417 92.8613 74.4348 93.1891C74.4348 93.4302 74.3704 93.667 74.2481 93.8753C74.1258 94.0836 73.9501 94.256 73.7388 94.3749C73.5617 94.657 73.3269 95.0563 73.2102 95.2881C72.8066 96.1195 71.8826 97.1403 71.2511 97.5915C69.6228 98.7541 67.9177 99.3374 66.3374 99.3374Z" fill="#472922"/>
<path d="M79.4707 98.596C79.2739 98.596 79.0734 98.5878 78.8693 98.5715C75.9231 98.337 72.4441 96.3826 71.722 93.5176C71.648 93.1722 71.7119 92.8118 71.9003 92.5123C72.0886 92.2128 72.3867 91.9975 72.7317 91.9118C73.0768 91.8262 73.4418 91.8767 73.75 92.053C74.0582 92.2292 74.2855 92.5173 74.3841 92.8565C74.7369 94.2577 76.9775 95.6861 79.0863 95.8551C80.0473 95.9328 81.3021 95.7774 81.8087 94.6025C81.8799 94.4378 81.983 94.2887 82.1121 94.1636C82.2413 94.0385 82.3941 93.9398 82.5617 93.8733C82.7292 93.8068 82.9084 93.7737 83.0888 93.776C83.2693 93.7782 83.4476 93.8157 83.6134 93.8863C83.7793 93.9569 83.9295 94.0592 84.0556 94.1875C84.1816 94.3157 84.2809 94.4674 84.3479 94.6337C84.4149 94.8001 84.4482 94.9779 84.446 95.1571C84.4438 95.3363 84.406 95.5132 84.3349 95.6779C83.5345 97.5302 81.7401 98.596 79.4707 98.596Z" fill="#472922"/>
<path d="M72.801 104.063C72.1915 104.063 71.3265 103.877 70.4671 103.059C68.799 101.465 68.0769 98.3435 68.0769 97.1032C68.0769 96.7418 68.2215 96.3951 68.479 96.1395C68.7365 95.8839 69.0857 95.7403 69.4498 95.7403C69.8139 95.7403 70.1631 95.8839 70.4206 96.1395C70.678 96.3951 70.8227 96.7418 70.8227 97.1032C70.8227 97.8488 71.424 100.19 72.3713 101.097C72.4894 101.21 72.6555 101.339 72.8038 101.337C73.5603 101.309 74.6037 99.5539 75.0485 96.3563C75.0712 96.1774 75.1295 96.0047 75.22 95.8483C75.3105 95.6919 75.4313 95.5549 75.5755 95.4452C75.7197 95.3355 75.8844 95.2553 76.06 95.2093C76.2356 95.1632 76.4187 95.1522 76.5987 95.1769C76.7786 95.2016 76.9519 95.2615 77.1083 95.3532C77.2648 95.4449 77.4013 95.5664 77.5101 95.7109C77.6189 95.8553 77.6977 96.0197 77.742 96.1946C77.7863 96.3695 77.7952 96.5514 77.7682 96.7298C77.1243 101.364 75.3972 103.969 72.9054 104.061L72.801 104.063Z" fill="#472922"/>
<path d="M54.0046 63.0875C50.1893 65.2916 46.7585 68.0942 43.8451 71.3866C44.9737 64.0102 48.9688 53.0901 54.0046 63.0875Z" fill="#472922"/>
<path d="M99.3709 68.1108C96.4453 65.4105 93.1246 63.1656 89.5217 61.4527C90.8095 58.8958 94.4642 55.6982 96.3121 58.9639C97.9321 61.8398 98.7161 64.9446 99.3709 68.1108Z" fill="#472922"/>
<path d="M105.358 91.3326C105.045 91.331 104.741 91.2229 104.498 91.0263C104.255 90.8298 104.087 90.5566 104.022 90.2521C103.957 89.9476 103.999 89.6302 104.141 89.3527C104.283 89.0752 104.516 88.8542 104.802 88.7266C108.655 87.0343 112.735 85.9075 116.914 85.3819C117.275 85.3365 117.64 85.4355 117.928 85.6571C118.216 85.8787 118.403 86.2048 118.449 86.5636C118.495 86.9223 118.395 87.2844 118.172 87.5702C117.948 87.856 117.62 88.042 117.259 88.0874C113.343 88.5797 109.521 89.6357 105.913 91.2222C105.738 91.2968 105.549 91.3344 105.358 91.3326Z" fill="#472922"/>
<path d="M41.5125 83.7073C41.2793 83.7071 41.0501 83.6475 40.8467 83.5342C36.8738 81.34 32.7684 79.3913 28.5537 77.6993C28.383 77.6348 28.2269 77.5372 28.0947 77.4121C27.9624 77.287 27.8566 77.137 27.7835 76.9708C27.7104 76.8046 27.6715 76.6256 27.669 76.4443C27.6664 76.2629 27.7004 76.0829 27.7688 75.9148C27.8372 75.7467 27.9387 75.5938 28.0674 75.4651C28.1961 75.3364 28.3494 75.2345 28.5182 75.1653C28.6871 75.0962 28.8682 75.0612 29.0508 75.0624C29.2335 75.0636 29.4141 75.101 29.582 75.1723C33.9024 76.9061 38.1106 78.9035 42.1825 81.1531C42.4485 81.2999 42.6579 81.5303 42.7776 81.8081C42.8973 82.0859 42.9207 82.3954 42.844 82.6878C42.7673 82.9802 42.5949 83.239 42.3539 83.4235C42.1129 83.6081 41.8169 83.7079 41.5125 83.7073Z" fill="#472922"/>
<path d="M40.3978 89.6038C40.3418 89.6036 40.2858 89.5999 40.2303 89.5929C36.9149 89.1931 33.5731 89.0523 30.2355 89.1718C29.8714 89.185 29.5169 89.054 29.25 88.8078C28.9832 88.5615 28.8258 88.22 28.8125 87.8586C28.7992 87.4971 28.9311 87.1452 29.1792 86.8802C29.4273 86.6153 29.7712 86.459 30.1353 86.4458C33.6196 86.32 37.1084 86.4672 40.5694 86.8861C40.9172 86.9271 41.2361 87.0987 41.4607 87.3655C41.6853 87.6323 41.7987 87.9743 41.7777 88.3214C41.7566 88.6685 41.6027 88.9946 41.3475 89.2327C41.0922 89.4709 40.7549 89.6031 40.4046 89.6025L40.3978 89.6038Z" fill="#472922"/>
<path d="M100.546 86.7545C100.253 86.7545 99.9683 86.6616 99.7325 86.4893C99.4967 86.317 99.3225 86.0744 99.2354 85.797C99.1483 85.5195 99.1529 85.2216 99.2484 84.9469C99.3439 84.6721 99.5254 84.4349 99.7663 84.2698C105.594 80.2858 112.048 77.2919 118.865 75.4105C119.04 75.3576 119.224 75.3401 119.406 75.3588C119.588 75.3776 119.764 75.4323 119.925 75.5196C120.085 75.607 120.226 75.7254 120.34 75.8677C120.454 76.01 120.537 76.1735 120.587 76.3485C120.636 76.5235 120.649 76.7064 120.626 76.8866C120.603 77.0668 120.544 77.2406 120.452 77.3978C120.36 77.555 120.238 77.6923 120.092 77.8019C119.946 77.9114 119.779 77.9909 119.602 78.0356C113.078 79.8383 106.901 82.7056 101.325 86.5201C101.095 86.6745 100.824 86.7562 100.546 86.7545Z" fill="#472922"/>
</svg>
