<svg width="29" height="30" viewBox="0 0 29 30" fill="none" xmlns="http://www.w3.org/2000/svg">
<path d="M7.16452 9.66992C8.49692 9.66992 9.60599 10.7923 9.60599 12.2122C9.60599 13.6333 8.49718 14.7551 7.16452 14.7551C5.83199 14.7551 4.72363 13.6335 4.72363 12.2122C4.72363 10.7922 5.83225 9.66992 7.16452 9.66992Z" stroke="#FFA101"/>
<path d="M19.394 12.8065C19.394 11.3865 20.5029 10.2642 21.8349 10.2642C23.1675 10.2642 24.2761 11.3865 24.2761 12.8065C24.2761 14.2275 23.1674 15.3488 21.8349 15.3488C20.5028 15.3488 19.394 14.2275 19.394 12.8065Z" stroke="#FFA101"/>
<path d="M18.7717 16.5032L18.7705 16.5016C18.5879 16.2688 18.3185 15.9862 17.9929 15.6761L17.9622 15.6469L17.9369 15.613C17.1372 14.5408 15.8941 13.856 14.5002 13.856C13.259 13.856 12.1392 14.3987 11.3429 15.2735L11.3262 15.2919L11.3077 15.3086C10.8101 15.7564 10.3902 16.1741 10.1338 16.5016L10.1321 16.5037L10.1321 16.5037L9.94187 16.744L9.94166 16.7443C9.06057 17.8556 8.0585 19.1292 8.06596 21.3069L18.7717 16.5032ZM18.7717 16.5032L18.962 16.7438L18.9623 16.7442C19.8432 17.8557 20.8455 19.1293 20.8381 21.3069C20.8308 23.2439 19.3099 24.7897 17.4883 24.7897C16.443 24.7897 15.4822 24.2915 14.8536 23.4441L14.4522 22.9029M18.7717 16.5032L14.4522 22.9029M14.4522 22.9029L14.0506 23.4439M14.4522 22.9029L14.0506 23.4439M14.0506 23.4439C13.4212 24.2916 12.4606 24.7897 11.4166 24.7897C9.59401 24.7897 8.0729 23.2435 8.06596 21.3069L14.0506 23.4439Z" stroke="#FFA101"/>
<path d="M17.4449 8.06295C17.4449 9.65446 16.202 10.9154 14.7041 10.9154C13.2063 10.9154 11.9634 9.65446 11.9634 8.06295C11.9634 6.47144 13.2063 5.21045 14.7041 5.21045C16.202 5.21045 17.4449 6.47144 17.4449 8.06295Z" stroke="#FFA101"/>
</svg>
