<svg width="20" height="20" viewBox="0 0 20 20" fill="none" xmlns="http://www.w3.org/2000/svg">
<path d="M6.9694 8.14197C6.9694 7.02197 6.061 6.11377 4.9408 6.11377C3.8206 6.11377 2.9126 7.02197 2.9126 8.14197C2.9126 9.26277 3.8204 10.1706 4.9408 10.1706C6.0612 10.1706 6.9694 9.26277 6.9694 8.14197Z" fill="#FFA101"/>
<path d="M15.0585 6.50977C13.9385 6.50977 13.0303 7.41797 13.0303 8.53797C13.0303 9.65877 13.9385 10.5662 15.0585 10.5662C16.1787 10.5662 17.0869 9.65877 17.0869 8.53797C17.0869 7.41797 16.1789 6.50977 15.0585 6.50977Z" fill="#FFA101"/>
<path d="M13.2164 10.7957C13.0754 10.6219 12.8758 10.4207 12.6466 10.2097C12.035 9.4171 11.0784 8.9043 10 8.9043C9.0402 8.9043 8.1774 9.3107 7.5676 9.9583C7.2212 10.2597 6.9132 10.5539 6.7172 10.7959L6.586 10.9561C5.974 11.7023 5.2122 12.6307 5.2178 14.2061C5.2232 15.6691 6.4146 16.8601 7.8734 16.8601C8.7066 16.8601 9.4702 16.4749 9.9668 15.8283C10.463 16.4749 11.2268 16.8601 12.0608 16.8601C13.519 16.8601 14.7102 15.6693 14.7158 14.2061C14.7214 12.6307 13.9594 11.7023 13.3476 10.9561L13.2164 10.7957Z" fill="#FFA101"/>
<path d="M10.1403 7.61062C11.3746 7.61062 12.3753 6.60998 12.3753 5.37563C12.3753 4.14127 11.3746 3.14062 10.1403 3.14062C8.90592 3.14062 7.90527 4.14127 7.90527 5.37563C7.90527 6.60998 8.90592 7.61062 10.1403 7.61062Z" fill="#FFA101"/>
</svg>
