<svg width="32" height="32" viewBox="0 0 32 32" fill="none" xmlns="http://www.w3.org/2000/svg">
<path fill-rule="evenodd" clip-rule="evenodd" d="M7.49947 5.8949C5.28749 6.906 3.66699 9.31095 3.66699 12.1788C3.66699 15.1086 4.86595 17.3669 6.58471 19.3024C8.00129 20.8974 9.71611 22.2194 11.3885 23.5088C11.7857 23.815 12.1805 24.1194 12.5684 24.4252C13.2698 24.9781 13.8954 25.4633 14.4985 25.8157C15.1018 26.1684 15.5875 26.3293 16.0003 26.3293C16.4131 26.3293 16.8989 26.1684 17.5022 25.8157C18.1053 25.4633 18.7309 24.9781 19.4323 24.4252C19.8202 24.1194 20.215 23.815 20.6122 23.5088C22.2846 22.2194 23.9994 20.8974 25.4159 19.3024C27.1347 17.3669 28.3337 15.1086 28.3337 12.1788C28.3337 9.31095 26.7131 6.906 24.5011 5.8949C22.3522 4.91262 19.4647 5.17275 16.7209 8.02363C16.5323 8.21948 16.2722 8.33015 16.0003 8.33015C15.7285 8.33015 15.4683 8.21948 15.2798 8.02363C12.5359 5.17275 9.64842 4.91262 7.49947 5.8949ZM16.0003 5.94107C12.9176 3.18296 9.46561 2.79714 6.66801 4.07592C3.71327 5.42654 1.66699 8.56268 1.66699 12.1788C1.66699 15.7328 3.14766 18.4441 5.08929 20.6304C6.64415 22.3812 8.54729 23.8466 10.2281 25.1408C10.6091 25.4341 10.9787 25.7188 11.3302 25.9958C12.0132 26.5342 12.7464 27.1084 13.4894 27.5425C14.2322 27.9765 15.0798 28.3293 16.0003 28.3293C16.9209 28.3293 17.7685 27.9765 18.5113 27.5425C19.2543 27.1084 19.9874 26.5342 20.6705 25.9958C21.0219 25.7188 21.3915 25.4341 21.7726 25.1408C23.4534 23.8466 25.3565 22.3812 26.9114 20.6304C28.853 18.4441 30.3337 15.7328 30.3337 12.1788C30.3337 8.56268 28.2874 5.42654 25.3326 4.07592C22.535 2.79714 19.0831 3.18296 16.0003 5.94107Z" fill="#FFFDF5"/>
</svg>
