<svg width="32" height="32" viewBox="0 0 32 32" fill="none" xmlns="http://www.w3.org/2000/svg">
<path fill-rule="evenodd" clip-rule="evenodd" d="M16.0003 1.66406C12.5025 1.66406 9.66699 4.4996 9.66699 7.9974C9.66699 11.4952 12.5025 14.3307 16.0003 14.3307C19.4982 14.3307 22.3336 11.4952 22.3336 7.9974C22.3336 4.4996 19.4982 1.66406 16.0003 1.66406ZM11.667 7.9974C11.667 5.60416 13.6071 3.66406 16.0003 3.66406C18.3936 3.66406 20.3336 5.60416 20.3336 7.9974C20.3336 10.3906 18.3936 12.3307 16.0003 12.3307C13.6071 12.3307 11.667 10.3906 11.667 7.9974Z" fill="#FFFDF5"/>
<path fill-rule="evenodd" clip-rule="evenodd" d="M15.9998 16.3281C12.9151 16.3281 10.0731 17.0293 7.96711 18.2139C5.8925 19.3809 4.33318 21.1496 4.33318 23.3281L4.3331 23.4641C4.33159 25.0132 4.3297 26.9575 6.03507 28.3461C6.87436 29.0296 8.04848 29.5156 9.63479 29.8368C11.2255 30.1587 13.2988 30.3281 15.9998 30.3281C18.7009 30.3281 20.7742 30.1587 22.3649 29.8368C23.9513 29.5156 25.1254 29.0296 25.9646 28.3461C27.6699 26.9575 27.6681 25.0132 27.6666 23.4641L27.6665 23.3281C27.6665 21.1496 26.1073 19.3809 24.0326 18.2139C21.9266 17.0293 19.0846 16.3281 15.9998 16.3281ZM6.33318 23.3281C6.33318 22.1931 7.16168 20.9616 8.94765 19.9571C10.7022 18.9701 13.1936 18.3281 15.9998 18.3281C18.8062 18.3281 21.2974 18.9701 23.0521 19.9571C24.8381 20.9616 25.6665 22.1931 25.6665 23.3281C25.6665 25.0719 25.6127 26.0535 24.7017 26.7953C24.2077 27.1977 23.3818 27.5904 21.9681 27.8765C20.5589 28.1617 18.6322 28.3281 15.9998 28.3281C13.3675 28.3281 11.4408 28.1617 10.0316 27.8765C8.61789 27.5904 7.79201 27.1977 7.29797 26.7953C6.38694 26.0535 6.33318 25.0719 6.33318 23.3281Z" fill="#FFFDF5"/>
</svg>
