<svg width="32" height="32" viewBox="0 0 32 32" fill="none" xmlns="http://www.w3.org/2000/svg">
<path d="M9.66699 16C9.66699 15.4477 10.1147 15 10.667 15H21.3336C21.886 15 22.3336 15.4477 22.3336 16C22.3336 16.5523 21.886 17 21.3336 17H10.667C10.1147 17 9.66699 16.5523 9.66699 16Z" fill="#FFFDF5"/>
<path d="M13.333 19C12.7807 19 12.333 19.4477 12.333 20C12.333 20.5523 12.7807 21 13.333 21H18.6663C19.2187 21 19.6663 20.5523 19.6663 20C19.6663 19.4477 19.2187 19 18.6663 19H13.333Z" fill="#FFFDF5"/>
<path fill-rule="evenodd" clip-rule="evenodd" d="M19.5527 3.10555C20.0467 2.85856 20.6473 3.05879 20.8944 3.55276L23.3121 8.38823C23.8821 8.41721 24.402 8.46148 24.8731 8.52912C26.2807 8.73123 27.4457 9.16572 28.2737 10.1899C29.1017 11.2141 29.2824 12.4443 29.1851 13.863C29.0908 15.238 28.7192 16.9718 28.2547 19.1393L27.6528 21.9482C27.3396 23.4102 27.0855 24.5961 26.7657 25.5225C26.4325 26.488 25.9932 27.2818 25.2431 27.8884C24.4928 28.4948 23.6245 28.758 22.6107 28.8814C21.6379 29 20.4251 29 18.9299 29H13.07C11.5749 29 10.3621 29 9.38928 28.8814C8.37545 28.758 7.5071 28.4948 6.75692 27.8884C6.00673 27.2818 5.56748 26.488 5.23425 25.5225C4.91448 24.5961 4.66039 23.4102 4.34713 21.9482L3.74524 19.1394C3.28073 16.9718 2.90917 15.238 2.81487 13.863C2.71755 12.4443 2.89828 11.2141 3.72627 10.1899C4.55424 9.16572 5.71929 8.73123 7.12692 8.52912C7.59795 8.46149 8.11776 8.41721 8.68777 8.38823L11.1055 3.55276C11.3525 3.05879 11.9532 2.85856 12.4471 3.10555C12.9411 3.35253 13.1413 3.95321 12.8944 4.44719L10.9499 8.33605C11.4347 8.33329 11.9449 8.33331 12.481 8.33331H19.5189C20.0549 8.33331 20.5653 8.33329 21.05 8.33605L19.1055 4.44719C18.8585 3.95321 19.0588 3.35253 19.5527 3.10555ZM7.64275 10.4783L7.10551 11.5528C6.85851 12.0467 7.05873 12.6474 7.55272 12.8944C8.04669 13.1414 8.64737 12.9412 8.89436 12.4472L9.94403 10.3479C10.7046 10.3338 11.5705 10.3333 12.5625 10.3333H19.4375C20.4295 10.3333 21.2953 10.3338 22.0559 10.3479L23.1055 12.4472C23.3525 12.9412 23.9532 13.1414 24.4472 12.8944C24.9411 12.6474 25.1413 12.0467 24.8944 11.5528L24.3571 10.4783C24.436 10.4878 24.5132 10.498 24.5888 10.5088C25.7673 10.678 26.3456 10.9862 26.7184 11.4473C27.0911 11.9084 27.2712 12.5384 27.1897 13.7262C27.1064 14.941 26.7675 16.5344 26.282 18.8L25.7105 21.4666C25.3807 23.0061 25.1505 24.0721 24.8752 24.87C24.6087 25.6418 24.3356 26.0501 23.9857 26.333C23.6357 26.6158 23.1793 26.7974 22.3688 26.8961C21.5309 26.9982 20.4403 27 18.866 27H13.134C11.5596 27 10.469 26.9982 9.63121 26.8961C8.8206 26.7974 8.36418 26.6158 8.01428 26.333C7.66436 26.0501 7.39124 25.6418 7.1248 24.87C6.84942 24.0721 6.61923 23.0061 6.28935 21.4666L5.71792 18.8C5.23243 16.5344 4.89351 14.941 4.81017 13.7262C4.72869 12.5384 4.90884 11.9084 5.2816 11.4473C5.65435 10.9862 6.23265 10.678 7.41116 10.5088C7.48668 10.498 7.56385 10.4878 7.64275 10.4783Z" fill="#FFFDF5"/>
</svg>
