<svg width="294" height="37" viewBox="0 0 294 37" fill="none" xmlns="http://www.w3.org/2000/svg">
<path d="M11.7474 18.5214C11.6186 18.8697 11.531 19.2315 11.4864 19.5995C11.3924 20.0444 11.3019 20.4893 11.2149 20.9376C11.0455 21.832 10.8958 22.7241 10.7659 23.6139C10.4986 25.4105 10.3336 27.2203 10.2716 29.035C10.2368 30.0377 10.2403 31.0439 10.2716 32.0501C10.3586 34.3191 9.33532 35.25 7.01022 35.2466C6.48974 35.2515 5.96996 35.208 5.45783 35.1166C0.650997 34.1925 -0.323596 32.9536 0.0836444 28.1109C0.574422 22.2929 2.04675 16.6768 4.03075 11.1873C4.37678 10.2892 4.46704 9.3154 4.2918 8.37066C3.93011 6.34759 3.84932 4.28562 4.05163 2.24118C4.23263 0.362296 5.04363 -0.000475949 6.71784 0.978324C7.02029 1.14737 7.3048 1.34571 7.56713 1.5704C9.26223 3.11731 11.0478 4.27065 13.4843 4.72925C15.9626 5.20154 17.0555 7.59036 18.2737 9.5993C18.7401 10.3693 18.848 11.3276 19.5686 12.036C20.3587 10.3248 21.1001 8.66841 22.2208 7.19679L22.3287 7.05647C22.9379 6.26932 23.6618 5.39662 24.5633 4.94486C25.6806 4.38701 26.791 3.81548 27.9152 3.27816C28.4687 3.01464 28.9281 2.44995 29.398 2.05637C29.8679 1.6628 30.4422 1.21105 30.9922 0.831162C33.0632 -0.592547 33.8185 -0.219508 34.0726 2.20011C34.2081 3.90534 34.1391 5.62032 33.8672 7.30973C33.7366 8.32059 33.8646 9.34754 34.2397 10.2975C35.4602 13.6358 36.4373 17.0555 37.1634 20.5304C37.4349 21.8218 37.667 23.1188 37.8596 24.4216C37.9605 25.0753 38.058 25.729 38.1415 26.3861C38.2355 27.0979 38.3469 27.7961 38.3991 28.5114C38.4872 29.4614 38.4131 30.4191 38.1798 31.3451C38.023 32.059 37.6989 32.727 37.2331 33.2958C36.5767 33.9547 35.7294 34.3981 34.807 34.5655C33.9055 34.7606 33.0075 35.007 32.0956 35.1268C29.6939 35.4348 28.3051 34.1959 28.4374 31.7968C28.6775 27.3751 28.0092 23.0561 27.0729 18.761C26.9894 18.3743 26.8362 18.0081 26.5856 17.2278C26.0983 18.453 25.705 19.336 25.3987 20.2497C25.0924 21.1635 24.8314 22.1047 24.6121 23.0458C24.1909 24.8802 23.7802 26.7146 23.4286 28.5593C23.1502 30.0172 22.28 30.7222 20.8146 30.8078C20.4109 30.8283 20.0106 30.8796 19.6034 30.8968C16.4916 31.0302 15.7746 30.5135 14.9845 27.5771C14.4949 25.7518 14.0029 23.9368 13.5087 22.132C13.3172 21.4236 13.1223 20.7152 12.9309 20.0102C12.8369 19.6679 12.7394 19.3017 12.642 18.9458C12.5967 18.7747 12.548 18.6036 12.5027 18.429C12.4331 18.1724 12.273 17.967 11.998 18.1997C11.8921 18.2881 11.8066 18.3978 11.7474 18.5214Z" fill="#472922"/>
<path d="M285.719 21.3615C285.813 22.4291 285.585 23.5 285.065 24.4416C284.369 25.5368 282.75 25.6874 281.584 25.8551C278.782 26.2658 275.946 26.4403 273.13 26.7346C272.75 26.7723 272.218 26.6217 272.058 27.0769C271.898 27.5321 272.343 27.7853 272.625 28.0488C274.258 29.5855 276.189 29.76 278.274 29.2159C279.416 28.9181 280.338 28.1891 281.362 27.6792C283.102 26.7894 284.842 27.1487 285.803 28.5759C286.659 29.8387 286.273 31.0058 284.686 32.3884C280.223 36.2728 275.256 36.153 270.272 33.8395C265.685 31.7176 263.373 27.8709 263.339 22.8708C263.318 19.688 264.686 17.0288 267.543 15.4716C271.762 13.1683 276.203 11.9089 280.916 14.154C281.915 14.6145 282.807 15.2714 283.537 16.0842C284.529 17.2051 285.219 18.5522 285.545 20.0028C285.641 20.4503 285.699 20.9047 285.719 21.3615Z" fill="#472922"/>
<path d="M82.3218 7.7678C83.1502 5.81705 86.8676 4.85194 88.4827 6.16613C89.2032 6.75478 89.1475 7.56246 89.1475 8.3633C89.1475 11.2004 89.1475 14.0376 89.1475 16.9774C90.5397 15.9952 91.6431 14.6023 93.1468 13.6988C95.531 12.2717 96.711 12.3298 98.7159 14.1471C100.209 15.4818 100.157 16.6489 98.4548 17.7201C96.8045 18.7735 95.2456 19.9594 93.7942 21.2657C92.9797 21.9878 92.9693 22.3814 93.8882 23.0521C96.2585 24.7839 98.5523 26.6114 100.85 28.4355C101.942 29.3048 103.122 30.2049 102.123 31.8579C100.94 33.8053 98.7159 34.7396 96.9999 33.9593C95.2839 33.179 93.8673 32.0496 92.4158 30.8791C91.9877 30.5369 91.6431 29.9859 90.8182 30.1946C91.0827 30.7799 91.3682 31.3446 91.6014 31.9264C92.3984 33.9079 91.7615 34.9415 89.5895 35.2221C85.1586 35.7971 83.2895 34.0927 82.6595 28.9044C82.2209 25.9441 81.9181 22.9803 81.7649 19.9788C81.6059 15.9004 81.7922 11.8159 82.3218 7.7678Z" fill="#472922"/>
<path d="M254.644 12.2714C256.906 12.2304 258.863 12.3946 260.704 13.1681C262.754 14.0305 263.14 15.6527 262.096 18.3975C261.247 20.5673 260.311 21.0327 258.066 20.3174C256.915 19.9125 255.694 19.7372 254.473 19.8018C253.253 19.8665 252.058 20.1697 250.958 20.6939C249.482 21.3989 248.34 22.5215 248.424 24.2634C248.514 26.1697 249.2 27.8501 251.174 28.6578C253.555 29.6297 255.897 29.575 258.163 28.2779C259.698 27.4018 261.146 27.5284 262.472 28.692C263.739 29.7974 263.77 30.8413 262.608 32.0562C259.124 35.7079 254.787 35.9372 250.262 34.7291C244.766 33.2506 241.066 28.6441 240.599 23.0519C240.293 19.3558 242.462 15.9197 246.353 14.1092C248.936 12.8768 251.773 12.2478 254.644 12.2714Z" fill="#472922"/>
<path d="M77.6194 14.9095C78.0171 15.0718 78.3962 15.2749 78.7507 15.5152C79.1108 15.7082 79.4345 15.9606 79.7079 16.2613C79.8627 16.5332 79.972 16.8279 80.0316 17.134C80.3518 18.4448 79.6452 19.8993 78.6184 20.7378C77.7169 21.4702 76.5613 21.5146 75.4579 21.3264C73.6584 21.0184 72.6003 22.1067 72.2383 23.9582C71.7545 26.4394 72.2801 28.8283 72.9692 31.1966C73.8255 34.1261 73.098 35.1939 70.0211 35.5396C66.4812 35.9331 64.3928 34.6532 63.5575 31.2992C62.3375 26.5357 62.0306 21.5905 62.6525 16.7165C62.9448 14.5056 63.8081 13.4994 65.8303 13.2188C67.7586 12.9519 69.861 12.6712 70.9992 14.8547C71.4865 15.7924 71.9946 15.1114 72.4088 14.9711C73.7847 14.4644 75.2772 14.3459 76.7179 14.6288C77.0256 14.6985 77.3271 14.7923 77.6194 14.9095Z" fill="#472922"/>
<path d="M206.753 19.1125C206.85 15.9194 206.784 12.3225 207.728 8.82138C208.58 5.64199 211.619 4.37229 214.668 5.82338C216.06 6.49074 216.06 7.63381 215.914 8.86929C215.337 13.6157 215.245 18.407 215.639 23.1714C215.837 25.8389 216.29 28.4823 216.99 31.0668C217.863 34.2325 216.642 35.6699 213.265 35.4783C209.889 35.2866 208.657 34.3181 207.856 31.0292C206.917 27.2406 206.843 23.3665 206.753 19.1125Z" fill="#472922"/>
<path d="M172.468 13.6327C172.044 13.5233 171.608 13.4636 171.17 13.4547C170.592 13.4547 169.917 13.4547 169.691 12.8181C169.342 11.8701 169.708 10.686 169.757 9.60452C169.757 9.26228 169.757 8.92004 169.802 8.5778C169.959 7.04115 169.106 6.25401 167.714 5.89466C163.338 4.77212 160.648 6.50384 160.265 10.9529C160.115 12.6641 159.659 13.4752 157.828 13.7901C155.674 14.1529 155.044 15.5013 155.364 17.9346C155.608 19.7416 156.123 20.142 158.514 20.1009C159.52 20.1009 159.906 20.2926 159.941 21.3946C160.032 23.3863 160.248 25.3705 160.589 27.3359C161.065 30.2449 162.263 32.7877 164.856 34.4989C166.732 35.7378 168.758 36.234 170.958 35.5256C171.691 35.3208 172.342 34.8988 172.823 34.317C173.304 33.7353 173.591 33.0221 173.645 32.2744C173.815 30.8062 173.206 29.7623 171.863 29.0676C171.289 28.7827 170.788 28.3735 170.399 27.8707C170.009 27.368 169.741 26.7849 169.614 26.1654C169.245 24.4816 169.405 22.7636 169.457 21.0558C169.478 20.4466 169.778 20.3234 170.334 20.3097C171.251 20.324 172.163 20.1898 173.035 19.9127C173.51 19.7679 173.937 19.5009 174.271 19.1393C174.637 18.7012 174.588 18.2152 174.619 17.6882C174.666 17.0742 174.666 16.4575 174.619 15.8435C174.61 15.4617 174.523 15.0856 174.362 14.7381C174.147 14.3828 173.819 14.1072 173.429 13.9544C173.118 13.8208 172.797 13.7131 172.468 13.6327Z" fill="#472922"/>
<path d="M204.905 13.0418C204.254 11.2922 203.207 9.71055 201.845 8.41591C200.482 7.12126 198.839 6.14729 197.038 5.56728C191.01 3.47963 185.103 4.03063 179.37 6.73773C178.87 6.96498 178.433 7.30879 178.099 7.73936C177.764 8.16993 177.541 8.67427 177.449 9.20869C177.066 11.0954 176.833 13.0086 176.753 14.9309L176.795 19.1131C176.861 20.0782 176.903 20.701 176.948 21.3239C177.191 25.0786 177.798 28.802 178.761 32.4432C179.182 33.9764 180.087 34.9724 181.689 35.2188C182.889 35.4147 184.102 35.529 185.319 35.561C187.059 35.5918 187.588 35.0203 187.55 33.3057C187.512 31.591 187.397 29.8833 187.794 28.1995C188.093 26.9263 188.796 26.2727 190.251 26.3582C195.04 26.6457 199.061 24.736 202.649 21.8407C205.451 19.5545 206.224 16.4299 204.905 13.0418ZM192.186 17.9392C191.851 18.0243 191.512 18.0929 191.17 18.1445C188.504 18.456 187.341 17.7099 187.237 15.612C187.108 13.2163 188.1 12.3333 191.274 12.3539C191.557 12.3392 191.84 12.361 192.117 12.4189C193.565 12.7817 194.929 13.2847 195.037 15.061C195.121 16.4812 194.052 17.5319 192.186 17.9392Z" fill="#472922"/>
<path d="M32.6803 2.67494C32.7307 3.30912 32.692 3.94712 32.5654 4.57093C32.5027 4.93028 32.4296 5.28621 32.3322 5.63872C32.179 6.19999 32.3322 7.13429 31.5525 7.15141C30.5083 7.17536 29.8122 6.36768 29.1856 5.59765C28.6949 4.99189 28.8376 4.43746 29.3423 3.93095C29.7828 3.4737 30.2475 3.0396 30.7345 2.63044C31.1696 2.28821 31.6639 1.81592 32.28 2.08971C32.3971 2.13871 32.4973 2.22008 32.5684 2.32396C32.6394 2.42784 32.6783 2.54976 32.6803 2.67494Z" fill="#F06B30"/>
<path d="M6.13638 2.45974C7.09357 2.5145 9.30729 4.58846 9.12977 5.31058C9.0169 5.87213 8.72787 6.38477 8.30332 6.77643C7.87877 7.16808 7.34005 7.41906 6.7629 7.49406C5.51334 7.65149 5.97279 6.40574 5.7187 5.78287C5.43834 4.98075 5.33974 4.12806 5.4298 3.28453C5.44024 2.78829 5.56903 2.36049 6.13638 2.45974Z" fill="#F06B30"/>
<path d="M131.504 13.3762C130.133 9.44733 127.327 6.8737 123.39 5.52186C117.418 3.46843 111.577 4.05708 105.907 6.71627C104.762 7.25016 104.194 8.11945 103.923 9.32754C103.349 11.9046 103.227 14.5124 103.227 17.3564C103.383 22.206 103.857 27.2369 105.173 32.1651C105.566 33.6333 106.252 34.8653 107.891 35.146C109.259 35.3716 110.642 35.502 112.029 35.5361C113.422 35.5772 114.146 34.9064 114.059 33.4211C113.961 31.7099 113.871 29.9987 114.254 28.3217C114.553 26.9904 115.218 26.2683 116.774 26.3436C121.556 26.6277 125.569 24.7111 129.148 21.8226C131.918 19.5878 132.666 16.6993 131.504 13.3762ZM118.187 18.1402C115.079 18.5132 113.791 17.2983 114.299 14.4645C114.584 12.8902 115.51 12.3358 117.853 12.3461C120.331 12.3461 121.946 13.3899 122.029 15.019C122.113 16.648 120.672 17.8424 118.187 18.1402Z" fill="#472922"/>
<path d="M154.863 28.6258C154.491 28.0084 153.904 27.5442 153.211 27.3189C152.519 27.0937 151.766 27.1227 151.093 27.4006C150.084 27.8045 149.165 28.4273 148.173 28.8825C145.837 29.9434 143.21 29.6149 141.699 28.0885C141.427 27.8147 141.003 27.404 141.076 27.1337C141.194 26.5827 141.824 26.7743 142.252 26.7264C145.413 26.3705 148.576 26.0282 151.741 25.6997C153.328 25.5286 154.417 24.673 154.525 23.1295C154.783 19.204 153.568 15.9083 149.903 14.1457C145.952 12.2463 142.075 13.0198 138.316 14.529C133.241 16.5551 131.121 21.5586 132.924 26.6443C134.88 32.1714 139.537 35.2755 146.311 35.2721C149.207 35.6622 151.73 34.1256 154.041 32.0927C155.124 31.1413 155.726 30.029 154.863 28.6258ZM146.61 20.7544L146.509 20.7886C144.992 21.3019 143.408 21.1993 141.842 21.3498C141.653 21.3812 141.46 21.3537 141.288 21.2711C140.338 20.7201 142.423 19.3135 142.896 19.139C143.869 18.8158 144.931 18.8772 145.858 19.3101C146.314 19.536 147.62 20.3437 146.61 20.7578V20.7544Z" fill="#472922"/>
<path d="M290.314 9.92598C290.314 12.2703 288.17 14.577 285.932 14.6249C284.028 14.666 282.642 13.4271 282.628 11.6714C282.628 9.30653 284.922 6.93825 287.216 6.96905C289.054 7.00327 290.307 8.21479 290.314 9.92598Z" fill="#472922"/>
<path d="M293.596 19.6687C292.552 21.3799 289.917 22.1431 288.253 21.1951C286.84 20.3908 286.384 18.8747 287.171 17.581C288.215 15.8425 291 15.1169 292.663 16.1436C294.004 16.9684 294.379 18.3921 293.596 19.6687Z" fill="#472922"/>
<path d="M274.345 9.28676C274.317 11.1622 272.977 12.4935 271.167 12.4388C269.357 12.384 267.787 10.5017 267.832 8.36956C267.867 6.5865 269.131 5.10804 270.599 5.12515C272.493 5.1491 274.379 7.2436 274.345 9.28676Z" fill="#472922"/>
<path d="M275.848 7.24902C275.89 4.81571 277.442 2.85126 279.301 2.87522C281.215 2.89917 282.649 4.44609 282.639 6.47214C282.639 8.83015 280.794 11.065 278.876 11.0615C277.021 11.0547 275.81 9.52832 275.848 7.24902Z" fill="#472922"/>
<path d="M61.3088 32.4229C60.6164 30.6031 60.2993 28.6661 60.3759 26.7246C60.4038 24.6198 60.5639 22.5116 60.5674 20.4069C60.5674 17.1317 58.5869 14.4862 55.4647 13.391C54.0466 12.8892 52.5601 12.5985 51.0547 12.5286C47.4521 12.3711 43.9784 12.7955 41.2844 15.5505C40.763 16.0435 40.4489 16.7111 40.4044 17.421C40.36 18.1309 40.5883 18.8314 41.0442 19.3836C42.3494 20.91 44.9634 19.9414 46.5367 19.2707C47.4487 18.8805 48.1831 18.5348 49.2064 18.4904C49.9582 18.4596 51.3227 18.3432 51.9666 18.8121C52.7393 19.3767 51.8831 20.1126 51.1834 20.3556C50.4838 20.5985 49.7668 20.5472 49.0463 20.5677C45.8127 20.6636 41.2147 22.5459 40.3724 25.9101C39.9547 27.5733 39.5475 29.0381 40.181 30.7254C40.8499 32.3629 42.1461 33.6767 43.7905 34.3839C46.9474 35.8487 50.1601 35.989 53.3345 34.4866C54.1037 34.1238 54.4379 34.1888 55.0435 34.7809C56.2304 35.9411 57.8072 36.1977 59.4118 35.8692C61.2809 35.4859 62.0223 34.182 61.3088 32.4229ZM50.1706 29.1305C48.9419 29.1716 48.378 28.4803 48.3258 27.3748C48.2666 26.1359 49.645 24.9586 51.1417 24.9381C52.1859 24.9381 53.1674 25.1161 53.338 26.3447C53.5085 27.5733 51.8169 29.0723 50.181 29.1305H50.1706Z" fill="#472922"/>
<path d="M239.708 32.4229C239.012 30.604 238.695 28.6663 238.775 26.7246C238.803 24.6198 238.96 22.5116 238.963 20.4069C238.963 17.1317 236.986 14.4862 233.864 13.391C232.446 12.8892 230.96 12.5985 229.454 12.5286C225.852 12.3711 222.378 12.7955 219.684 15.5505C219.163 16.0435 218.848 16.7108 218.803 17.4204C218.758 18.1301 218.986 18.8306 219.44 19.3836C220.749 20.91 223.363 19.9414 224.936 19.2707C225.848 18.8805 226.583 18.5348 227.606 18.4904C228.358 18.4596 229.722 18.3432 230.366 18.8121C231.139 19.3767 230.279 20.1126 229.583 20.3556C228.887 20.5985 228.166 20.5472 227.446 20.5677C224.212 20.6636 219.614 22.5459 218.772 25.9101C218.354 27.5733 217.943 29.0381 218.58 30.7254C219.249 32.3629 220.546 33.6767 222.19 34.3839C225.347 35.8487 228.56 35.989 231.734 34.4866C232.503 34.1238 232.837 34.1888 233.443 34.7809C234.63 35.9411 236.203 36.1977 237.808 35.8692C239.68 35.4859 240.422 34.182 239.708 32.4229ZM228.57 29.1305C227.341 29.1716 226.774 28.4803 226.722 27.3748C226.666 26.1359 228.044 24.9586 229.541 24.9381C230.585 24.9381 231.567 25.1161 231.734 26.3447C231.901 27.5733 230.216 29.0723 228.58 29.1305H228.57Z" fill="#472922"/>
</svg>
