<svg xmlns="http://www.w3.org/2000/svg" viewBox="0 0 821.59 880.43"><defs><style>.cls-1{fill:#ffa101;}.cls-2{fill:#33200d;}.cls-3{fill:#fae6b1;}</style></defs><g id="Capa_2" data-name="Capa 2"><g id="Capa_1_copia_4" data-name="Capa 1 copia 4"><path class="cls-1" d="M767.64,855.24c-17.08,9.46-37.12,14.37-57.27,15.09-48.94,1.78-98.64-21.09-108.78-63.33-4-16.68-1.85-36.38,9-58.78,9-18.63,23.88-35.09,42.11-45a138.55,138.55,0,0,1,27.81-11.54C789.83,660.15,862.69,802.63,767.64,855.24Z"/><path class="cls-2" d="M705,880.43c-24.62,0-48.7-5.78-68.37-16.47-23.83-13-39.32-31.85-44.78-54.63-4.84-20.11-1.58-42.13,9.68-65.46,10.23-21.2,26.69-38.76,46.34-49.43a149.29,149.29,0,0,1,29.82-12.36c64.17-18.51,117,18.21,136,64,8.76,21.13,10.27,43.84,4.24,64-6.75,22.53-22.47,41.17-45.48,53.9-17.84,9.88-39.19,15.53-61.75,16.33C708.82,880.39,706.92,880.43,705,880.43Zm6.05-183.18a100.1,100.1,0,0,0-27.83,4A129.08,129.08,0,0,0,657.43,712c-15.76,8.56-29.57,23.34-37.87,40.55-9.2,19.06-12,36.58-8.25,52.09,9.27,38.57,56.68,57.21,98.7,55.68,19.44-.7,37.69-5.49,52.79-13.85h0c42.55-23.55,44.07-64.66,32.44-92.7C782.47,723,751.05,697.25,711.07,697.25Z"/><path class="cls-1" d="M219.67,808.28c-10.83,41.43-60,63.81-108.46,62.05-20.15-.72-40.19-5.63-57.27-15.09-93.57-51.79-24.41-190.68,82.1-164.9a136.22,136.22,0,0,1,32.88,12.89c18.23,9.9,33.12,26.36,42.11,45C222.12,771.2,224.11,791.33,219.67,808.28Z"/><path class="cls-2" d="M116.55,880.43c-1.9,0-3.8,0-5.7-.11-22.56-.8-43.91-6.45-61.75-16.33C26.5,851.48,10.9,833.24,4,811.22c-6.19-19.67-5.12-42,3-62.91,17.61-45.18,68.39-82.94,131.4-67.69a146.78,146.78,0,0,1,35.3,13.82c19.66,10.68,36.12,28.23,46.35,49.43,11.54,23.92,14.67,46.44,9.31,66.94h0c-5.84,22.34-21.43,40.84-45.08,53.51C164.73,874.78,140.88,880.43,116.55,880.43Zm-6.1-183.21c-40.86,0-72.6,27-84.82,58.35-11.24,28.86-8.44,67.9,33.16,90.92,15.1,8.36,33.35,13.15,52.78,13.85,41.44,1.49,88.54-16.76,98.43-54.59h0c4.13-15.77,1.45-33.66-8-53.18-8.31-17.21-22.11-32-37.88-40.55a126.8,126.8,0,0,0-30.46-12A98.46,98.46,0,0,0,110.45,697.22Z"/><path class="cls-2" d="M651.39,863.33a10,10,0,0,1-9.91-8.77,164.22,164.22,0,0,1-.73-20.35c0-1.36,0-2.71,0-4.05a10,10,0,1,1,20,0c0,1.37,0,2.76,0,4.16a149.84,149.84,0,0,0,.58,17.77,10,10,0,0,1-8.69,11.16A10.63,10.63,0,0,1,651.39,863.33Z"/><path class="cls-2" d="M170.19,863.33a10.63,10.63,0,0,1-1.25-.08,10,10,0,0,1-8.69-11.16,147.75,147.75,0,0,0,.58-17.77c0-1.4,0-2.79,0-4.16a10,10,0,0,1,20,0c0,1.34,0,2.69,0,4.05a160.42,160.42,0,0,1-.73,20.35A10,10,0,0,1,170.19,863.33Z"/><path class="cls-2" d="M710.43,880.43a10,10,0,0,1-8.95-5.52c-3.94-7.87-4.47-18.18-4.94-27.28-.2-3.73-.38-7.26-.77-10a10,10,0,1,1,19.8-2.83c.52,3.63.72,7.59.94,11.78.35,6.79.79,15.24,2.86,19.37a10,10,0,0,1-8.94,14.47Z"/><path class="cls-2" d="M111.16,880.43A10,10,0,0,1,102.22,866c2.06-4.13,2.5-12.57,2.85-19.36.22-4.19.43-8.16,1-11.79a10,10,0,1,1,19.79,2.83c-.39,2.74-.57,6.26-.76,10-.47,9.09-1,19.4-4.94,27.27A10,10,0,0,1,111.16,880.43Z"/><path class="cls-2" d="M764,857.28a10.62,10.62,0,0,1-1.48-.1,10,10,0,0,1-8.43-11.36,76.76,76.76,0,0,0,.58-9.86,91.74,91.74,0,0,1,.76-12.27,10,10,0,0,1,19.79,2.94,74.15,74.15,0,0,0-.56,9.63,92.56,92.56,0,0,1-.78,12.49A10,10,0,0,1,764,857.28Z"/><path class="cls-2" d="M57.63,857.28a10,10,0,0,1-9.88-8.53,91.08,91.08,0,0,1-.79-12.5,74.3,74.3,0,0,0-.55-9.63,10,10,0,0,1,19.78-2.93A90,90,0,0,1,67,836a75.08,75.08,0,0,0,.57,9.87,10,10,0,0,1-8.42,11.35A9.39,9.39,0,0,1,57.63,857.28Z"/><path class="cls-1" d="M681.86,670a166.51,166.51,0,0,1-1.39,21.68,138.55,138.55,0,0,0-27.81,11.54c-18.23,9.9-33.12,26.36-42.11,45-10.81,22.4-13,42.1-9,58.78-48.77,30.44-116,46.33-190.8,46.33-73.77,0-141.32-15.44-191.12-45.05,4.44-16.95,2.45-37.08-8.64-60.06-9-18.63-23.88-35.09-42.11-45A136.22,136.22,0,0,0,136,690.34,158.84,158.84,0,0,1,134.76,670c0-.28,0-.56,0-.84,0-.66,0-1.32,0-2,.89-103.41,69.59-416.17,173.59-223.25a279.31,279.31,0,0,1,66.54-17.54,268.16,268.16,0,0,1,81.67,1.53,270.25,270.25,0,0,1,31.61,7.46c33-49.06,83.17-97.86,118.6-34.6,38.12,68.08,68,170.61,74.05,250.14C681.35,657.44,681.69,663.82,681.86,670Z"/><path class="cls-2" d="M410.79,863.33c-76.16,0-145.85-16.5-196.23-46.46A10,10,0,0,1,210,805.75c4.13-15.77,1.45-33.66-8-53.18-8.31-17.21-22.11-32-37.88-40.55a126.8,126.8,0,0,0-30.46-12,10,10,0,0,1-7.57-8.44A170.34,170.34,0,0,1,124.76,670c0-.33,0-.66,0-1,0-.65,0-1.31,0-2,.31-35.93,9.11-103.74,27.7-167.56,9.66-33.17,20.58-60.45,32.45-81.07,14.64-25.44,30.8-40.5,48-44.77,27.12-6.72,54,12.74,79.94,57.87a287.92,287.92,0,0,1,60.69-15,277.93,277.93,0,0,1,84.7,1.59c8.64,1.5,17.27,3.41,25.74,5.72,21.65-30.8,52.67-64.34,84.62-63,18.47.76,34.23,12.58,46.87,35.13,38.06,68,69,172.54,75.29,254.26.52,6.64.87,13.24,1.05,19.6V670a177.09,177.09,0,0,1-1.47,23,10,10,0,0,1-7.16,8.31A129.25,129.25,0,0,0,657.43,712c-15.76,8.56-29.57,23.34-37.87,40.55-9.2,19.06-12,36.58-8.25,52.09a10,10,0,0,1-4.42,10.82C556.74,846.78,488.93,863.33,410.79,863.33ZM230.93,803.21c46.83,25.91,110.34,40.12,179.86,40.12,70.31,0,133.77-14.63,179.69-41.31-2.55-18.1,1.16-37.62,11.07-58.15,10.23-21.2,26.69-38.75,46.34-49.43a153,153,0,0,1,23.36-10.32c.4-4.59.61-9.27.61-14-.16-6-.5-12.19-1-18.46-6.07-79.15-36-180.32-72.8-246-9-16.09-19.18-24.47-30.23-24.93C548.79,380,522.77,401.9,496.49,441a10,10,0,0,1-11.18,4,258.34,258.34,0,0,0-109.06-8.66,269.35,269.35,0,0,0-64.17,16.92,10,10,0,0,1-12.51-4.55c-15.39-28.54-38.6-61.38-61.8-55.62-22.92,5.68-47,46.5-66.09,112-18.05,62-26.6,127.54-26.9,162.21,0,.69,0,1.3,0,1.91v.37c0,.15,0,.31,0,.47,0,4.2.17,8.38.51,12.47a150.62,150.62,0,0,1,28.42,12c19.66,10.68,36.12,28.23,46.35,49.43C230.17,764.87,233.82,784.79,230.93,803.21Z"/><path class="cls-3" d="M432.78,708.33C429.94,729,422.2,752.92,406.9,753.5c-16.13.6-24.79-31.18-24.8-41a65.28,65.28,0,0,0,7.18-4.52c3.63-2.63,9.2-9,11.17-13.27.08-.19,7.86-14.72,7.86-10.93C410.86,693.94,420.85,703,432.78,708.33Z"/><path class="cls-1" d="M506.23,155.91c-2,39.41-23.68,74.35-44.67,108.13-38.34,61.69-49.54,88.29-14.71,123.12a40,40,0,0,1,9.73,40.75,268.16,268.16,0,0,0-81.67-1.53c-25.15-32.36-34.09-68.25-26.59-107,7-35.94,27.33-68.7,45.29-97.6,15.62-25.15,31.78-51.15,32.72-69.91,1.17-23.4-7-41.51-23.65-52.38-18.6-12.14-43.91-12.81-66.07-1.73a40,40,0,1,1-35.77-71.55C348.33,2.5,404.11,4.92,446.42,32.55,487,59.07,508.82,104,506.23,155.91Z"/><path class="cls-2" d="M456.59,437.91a10.08,10.08,0,0,1-1.72-.15,258.25,258.25,0,0,0-78.62-1.47,10,10,0,0,1-9.23-3.77c-27-34.72-36.57-73.41-28.51-115,7.32-37.75,28.19-71.34,46.6-101l8.55,5.19-8.49-5.28c14.23-22.92,30.36-48.89,31.18-65.05,1-19.93-5.45-34.57-19.14-43.51-15.63-10.2-37.14-10.65-56.13-1.16a50,50,0,0,1-44.71-89.43C347-8,406.61-5.39,451.89,24.18c43.66,28.51,67.1,76.71,64.33,132.23h0c-2.1,42-24.5,78-46.16,112.91-38.87,62.53-44.82,82.09-16.14,110.77A49.8,49.8,0,0,1,466.09,431,10,10,0,0,1,456.59,437.91ZM410.79,414a279.13,279.13,0,0,1,37.77,2.58,29.85,29.85,0,0,0-8.78-22.32c-41.7-41.7-23.13-76.88,13.29-135.47,20.32-32.7,41.33-66.52,43.17-103.35h0c2.41-48.23-17.74-90-55.29-114.49C401.61,15.23,349.63,13,305.32,35.19a30,30,0,0,0,26.82,53.67c25.32-12.66,54.44-11.78,76,2.3,19.79,12.92,29.53,34.1,28.17,61.25-1.07,21.32-17.89,48.41-34.16,74.6l-.06.1c-17.5,28.16-37.34,60.09-44,94.21-6.57,33.91.6,65.64,21.3,94.42A278,278,0,0,1,410.79,414Z"/><path class="cls-2" d="M325.8,674.8a24.34,24.34,0,0,1-24.34-24.34v-2.65a24.34,24.34,0,0,1,48.67,0v2.65A24.33,24.33,0,0,1,325.8,674.8Z"/><path class="cls-2" d="M325.8,672.15a24.34,24.34,0,0,1-24.34-24.34v-.28a24.34,24.34,0,1,1,48.67,0v.28A24.33,24.33,0,0,1,325.8,672.15Z"/><path class="cls-2" d="M481.11,673.77a24.34,24.34,0,0,1-24.34-24.34v-.29a24.34,24.34,0,1,1,48.68,0v.29A24.34,24.34,0,0,1,481.11,673.77Z"/><path class="cls-2" d="M404,692.25A15.15,15.15,0,0,1,397,663.61l.7-.36a15.16,15.16,0,0,1,13.8,27l-.69.35A15.1,15.1,0,0,1,404,692.25Z"/><path class="cls-2" d="M359.39,728.84a41,41,0,0,1-29.56-12.1A10,10,0,0,1,344,702.6c14.21,14.21,35.35.18,39.44-2.78,2.5-1.8,6.81-6.87,7.95-9.36.34-.73,2.32-4.32,3.85-6.87,3-5.05,7.13-12,15-10.26a10.44,10.44,0,0,1,8.13,10.4,10,10,0,0,1-5.07,8.7c-1.29,2.07-3,5-3.85,6.7-2.94,6.1-9.67,13.59-14.27,16.9C383.32,724.56,370.9,728.84,359.39,728.84Zm38.93-45.11v0Z"/><path class="cls-2" d="M455.05,723.41q-2.15,0-4.38-.18c-21.46-1.72-46.8-16.06-52.06-37.08A10,10,0,0,1,418,681.3c2.57,10.28,18.89,20.76,34.25,22,7,.57,16.14-.57,19.83-9.19A10,10,0,1,1,490.48,702C484.65,715.59,471.58,723.41,455.05,723.41Z"/><path class="cls-2" d="M406.47,763.5c-4.44,0-10.74-1.36-17-7.36-12.15-11.7-17.41-34.6-17.41-43.7a10,10,0,0,1,20,0c0,5.47,4.38,22.65,11.28,29.3.86.83,2.07,1.78,3.15,1.76,5.51-.2,13.11-13.08,16.35-36.54a10,10,0,1,1,19.81,2.74c-4.69,34-17.27,53.11-35.42,53.79Z"/><path class="cls-2" d="M269.56,462.87a298,298,0,0,0-74,60.89C203.78,469.64,232.88,389.52,269.56,462.87Z"/><path class="cls-2" d="M600,499.73a288.14,288.14,0,0,0-71.74-48.85h0c9.38-18.76,36-42.22,49.46-18.26C589.52,453.72,595.23,476.5,600,499.73Z"/><path class="cls-2" d="M643.61,670.12A10,10,0,0,1,639.56,651a316.25,316.25,0,0,1,88.22-24.54,10,10,0,0,1,2.51,19.85,295.93,295.93,0,0,0-82.64,23A10,10,0,0,1,643.61,670.12Z"/><path class="cls-2" d="M178.57,614.16a9.93,9.93,0,0,1-4.85-1.27,804.82,804.82,0,0,0-89.54-42.81,10,10,0,1,1,7.49-18.54,823.05,823.05,0,0,1,91.78,43.88,10,10,0,0,1-4.88,18.74Z"/><path class="cls-2" d="M170.45,657.41a10.13,10.13,0,0,1-1.22-.08,464.82,464.82,0,0,0-72.8-3.09,10,10,0,0,1-.73-20,483,483,0,0,1,76,3.23,10,10,0,0,1-1.2,19.93Z"/><path class="cls-2" d="M608.56,636.52a10,10,0,0,1-5.68-18.23,464.73,464.73,0,0,1,139.11-65,10,10,0,1,1,5.37,19.26,444.93,444.93,0,0,0-133.13,62.25A10,10,0,0,1,608.56,636.52Z"/></g></g></svg>