<svg width="101" height="27" viewBox="0 0 101 27" fill="none" xmlns="http://www.w3.org/2000/svg">
<g clip-path="url(#clip0_764_11500)">
<path d="M75.539 9.90485C75.0504 8.57586 74.2654 7.37446 73.2431 6.39104C72.2208 5.40762 70.9877 4.66779 69.6367 4.22721C65.1133 2.64142 60.6813 3.05997 56.38 5.11629C56.0045 5.28891 55.6769 5.55007 55.4257 5.87713C55.1745 6.20419 55.0072 6.5873 54.9383 6.99324C54.651 8.4264 54.4764 9.87968 54.416 11.3399L54.4474 14.5166C54.497 15.2497 54.5257 15.7229 54.5623 16.196C54.7447 19.0481 55.2003 21.8764 55.9229 24.6423C56.2363 25.8069 56.918 26.5634 58.1193 26.7506C59.0202 26.8995 59.9304 26.9864 60.8433 27.0106C62.1491 27.034 62.5461 26.5998 62.5173 25.2974C62.4886 23.995 62.4024 22.6978 62.7001 21.4187C62.9247 20.4516 63.4523 19.9551 64.544 20.0201C68.1376 20.2385 71.154 18.7879 73.8466 16.5886C75.949 14.852 76.5209 12.4785 75.539 9.90485ZM65.996 13.625C65.7446 13.6896 65.4901 13.7417 65.2334 13.7809C63.2329 14.0175 62.3606 13.4508 62.2823 11.8572C62.1856 10.0374 62.93 9.36673 65.3118 9.38232C65.5237 9.37117 65.7362 9.38778 65.9438 9.43172C67.0302 9.70728 68.054 10.0894 68.135 11.4387C68.1976 12.5175 67.3959 13.3156 65.996 13.625Z" fill="white"/>
<path d="M8.81419 14.0694C8.7175 14.334 8.65177 14.6088 8.61831 14.8883C8.5478 15.2263 8.4799 15.5643 8.41461 15.9048C8.28751 16.5842 8.17521 17.2618 8.0777 17.9377C7.87717 19.3024 7.75336 20.6772 7.70685 22.0556C7.68073 22.8173 7.68335 23.5816 7.70685 24.3459C7.77214 26.0695 7.00432 26.7766 5.25974 26.774C4.86922 26.7777 4.47921 26.7446 4.09495 26.6752C0.488274 25.9733 -0.242985 25.0322 0.0625771 21.3537C0.430818 16.9343 1.53554 12.6682 3.02418 8.49839C3.28382 7.81625 3.35154 7.07651 3.22005 6.35888C2.94867 4.82215 2.88805 3.25586 3.03985 1.7029C3.17565 0.27569 3.78417 0.000126749 5.04036 0.743628C5.2673 0.872033 5.48078 1.0227 5.67761 1.19337C6.94947 2.36841 8.28925 3.24449 10.1174 3.59285C11.9769 3.9516 12.7969 5.76616 13.711 7.29215C14.061 7.87708 14.1419 8.60498 14.6825 9.14311C15.2754 7.84328 15.8317 6.58505 16.6726 5.4672L16.7536 5.36061C17.2106 4.76269 17.7538 4.09978 18.4302 3.75663C19.2686 3.33288 20.1017 2.89874 20.9453 2.49059C21.3605 2.29042 21.7052 1.86148 22.0578 1.56252C22.4104 1.26356 22.8413 0.920404 23.254 0.631842C24.8079 -0.449613 25.3746 -0.166251 25.5653 1.6717C25.6669 2.967 25.6152 4.26971 25.4112 5.55299C25.3131 6.32085 25.4092 7.10092 25.6906 7.82248C26.6064 10.3583 27.3395 12.9559 27.8844 15.5954C28.0881 16.5764 28.2622 17.5617 28.4067 18.5513C28.4825 19.0478 28.5556 19.5443 28.6183 20.0435C28.6888 20.5842 28.7723 21.1145 28.8115 21.6578C28.8776 22.3795 28.822 23.107 28.647 23.8104C28.5294 24.3526 28.2861 24.86 27.9366 25.2922C27.4441 25.7926 26.8084 26.1295 26.1163 26.2566C25.4399 26.4048 24.7661 26.592 24.0818 26.683C22.2798 26.9169 21.2378 25.9759 21.337 24.1535C21.5172 20.7948 21.0158 17.514 20.3132 14.2514C20.2506 13.9577 20.1357 13.6795 19.9476 13.0868C19.582 14.0175 19.2869 14.6882 19.057 15.3823C18.8272 16.0764 18.6313 16.7913 18.4668 17.5062C18.1508 18.8996 17.8426 20.293 17.5789 21.6942C17.3699 22.8017 16.717 23.3372 15.6175 23.4022C15.3146 23.4178 15.0142 23.4568 14.7087 23.4698C12.3739 23.5712 11.8359 23.1786 11.243 20.9481C10.8756 19.5617 10.5065 18.183 10.1357 16.8121C9.99204 16.274 9.84578 15.7358 9.70214 15.2003C9.63163 14.9403 9.5585 14.6622 9.48538 14.3918C9.45143 14.2618 9.41486 14.1318 9.38091 13.9993C9.32868 13.8043 9.20854 13.6483 9.00222 13.8251C8.9227 13.8922 8.85858 13.9755 8.81419 14.0694Z" fill="white"/>
<path d="M24.5206 2.03556C24.5584 2.51729 24.5294 3.00191 24.4344 3.47577C24.3874 3.74873 24.3325 4.01909 24.2594 4.28686C24.1445 4.7132 24.2594 5.42291 23.6744 5.4359C22.8909 5.4541 22.3686 4.84058 21.8985 4.25566C21.5302 3.79552 21.6373 3.37438 22.016 2.98963C22.3466 2.64231 22.6953 2.31256 23.0607 2.00176C23.3871 1.7418 23.758 1.38305 24.2202 1.59102C24.3081 1.62824 24.3833 1.69005 24.4366 1.76896C24.4899 1.84787 24.5191 1.94048 24.5206 2.03556Z" fill="#F06B30"/>
<path d="M4.60423 1.86643C5.32243 1.90802 6.98344 3.48341 6.85024 4.03194C6.76555 4.45849 6.54869 4.8479 6.23014 5.1454C5.91159 5.44291 5.50737 5.63355 5.07433 5.69052C4.13675 5.8101 4.48148 4.86383 4.29084 4.39069C4.08048 3.7814 4.00649 3.13369 4.07407 2.49294C4.0819 2.11599 4.17853 1.79104 4.60423 1.86643Z" fill="#F06B30"/>
<path d="M51.9557 10.1595C50.9268 7.17508 48.8218 5.22014 45.868 4.19327C41.3864 2.63348 37.0041 3.08062 32.7471 5.10055C31.8905 5.5061 31.4622 6.16641 31.2611 7.08409C30.8276 9.04163 30.7388 11.0226 30.7388 13.1829C30.8563 16.8666 31.2089 20.6881 32.1987 24.4316C32.4938 25.5468 33.0083 26.4827 34.2384 26.6959C35.266 26.8676 36.3045 26.9667 37.3462 26.9922C38.3909 27.0234 38.9341 26.5139 38.8688 25.3856C38.7931 24.0858 38.7278 22.786 39.0125 21.5122C39.2397 20.5009 39.7359 19.9524 40.9033 20.0096C44.4943 20.2253 47.5055 18.7695 50.1903 16.5754C52.2561 14.8778 52.8254 12.6837 51.9557 10.1595ZM41.9636 13.7782C39.6288 14.0616 38.6625 13.1387 39.0464 10.9862C39.2579 9.79033 39.9553 9.36918 41.7103 9.37698C43.5724 9.37698 44.7842 10.1699 44.8442 11.4073C44.9043 12.6447 43.8283 13.552 41.9636 13.7782Z" fill="white"/>
<path d="M94.2803 18.143C94.5414 19.9185 95.1839 21.4757 94.2803 23.2175C93.3087 25.1127 91.2925 25.9055 89.2502 25.9445C86.8318 25.9913 84.5284 25.0009 82.3189 24.0234C81.3814 23.6101 80.4229 23.1785 79.6864 22.4636C77.1792 20.0589 78.7253 15.4783 81.4466 13.9731C84.403 12.3406 87.5161 11.4463 90.8172 13.0399C91.5186 13.3677 92.1459 13.8338 92.661 14.4099C93.5442 15.477 94.1056 16.7713 94.2803 18.143Z" fill="white"/>
<path d="M98.0877 9.67846C98.0877 11.4592 96.4789 13.2114 94.7996 13.2478C93.3711 13.2764 92.3316 12.3353 92.3238 11.0017C92.3107 9.20792 94.0449 7.40896 95.7633 7.43235C97.1527 7.45055 98.0825 8.35783 98.0877 9.67846Z" fill="white"/>
<path d="M100.689 17.072C99.8769 18.4109 97.8633 18.9958 96.5862 18.2601C95.4998 17.6336 95.1498 16.4559 95.7531 15.4498C96.5653 14.098 98.6938 13.5339 99.9735 14.332C101 14.9715 101.29 16.0816 100.689 17.072Z" fill="white"/>
<path d="M86.1084 9.18717C86.0849 10.6144 85.0794 11.623 83.7214 11.5814C82.3633 11.5399 81.1855 10.1126 81.222 8.49046C81.2481 7.13864 82.1988 6.01299 83.3113 6.02599C84.719 6.04419 86.1319 7.63518 86.1084 9.18717Z" fill="white"/>
<path d="M87.2285 7.63795C87.2598 5.7896 88.4246 4.2974 89.8218 4.31559C91.2191 4.33379 92.3316 5.50884 92.3264 7.05043C92.3264 8.83899 90.9396 10.5392 89.5006 10.534C88.1138 10.5288 87.205 9.35892 87.2285 7.63795Z" fill="white"/>
</g>
<defs>
<clipPath id="clip0_764_11500">
<rect width="101" height="27" fill="white"/>
</clipPath>
</defs>
</svg>
