<svg width="34" height="34" viewBox="0 0 34 34" fill="none" xmlns="http://www.w3.org/2000/svg">
<g clip-path="url(#clip0_1_7)">
<path d="M9.72704 12.5399C9.72704 9.85186 7.54688 7.67218 4.8584 7.67218C2.16992 7.67218 -0.00927734 9.85186 -0.00927734 12.5399C-0.00927734 15.2298 2.16944 17.4085 4.8584 17.4085C7.54736 17.4085 9.72704 15.2298 9.72704 12.5399Z" fill="#FFA101"/>
<path d="M29.1406 8.62305C26.4526 8.62305 24.273 10.8027 24.273 13.4907C24.273 16.1806 26.4526 18.3584 29.1406 18.3584C31.8291 18.3584 34.0088 16.1806 34.0088 13.4907C34.0088 10.8027 31.8296 8.62305 29.1406 8.62305Z" fill="#FFA101"/>
<path d="M24.7194 18.9095C24.381 18.4924 23.9019 18.0095 23.3518 17.5031C21.884 15.6008 19.5882 14.3701 17 14.3701C14.6965 14.3701 12.6258 15.3455 11.1622 16.8997C10.3309 17.6231 9.59168 18.3292 9.12128 18.91L8.8064 19.2944C7.3376 21.0853 5.50928 23.3135 5.52272 27.0944C5.53568 30.6056 8.39504 33.464 11.8962 33.464C13.8958 33.464 15.7285 32.5396 16.9203 30.9877C18.1112 32.5396 19.9443 33.464 21.9459 33.464C25.4456 33.464 28.3045 30.6061 28.3179 27.0944C28.3314 23.3135 26.5026 21.0853 25.0342 19.2944L24.7194 18.9095Z" fill="#FFA101"/>
<path d="M17.3374 11.265C20.2999 11.265 22.7014 8.86344 22.7014 5.90099C22.7014 2.93853 20.2999 0.536987 17.3374 0.536987C14.375 0.536987 11.9734 2.93853 11.9734 5.90099C11.9734 8.86344 14.375 11.265 17.3374 11.265Z" fill="#FFA101"/>
</g>
<defs>
<clipPath id="clip0_1_7">
<rect width="34" height="34" fill="white"/>
</clipPath>
</defs>
</svg>
