<svg width="20" height="20" viewBox="0 0 20 20" fill="none" xmlns="http://www.w3.org/2000/svg">
<path fill-rule="evenodd" clip-rule="evenodd" d="M9.79191 5.33847C8.55833 5.33847 8.43533 5.46859 7.79691 5.46859C7.2649 5.46859 5.66887 4.1665 4.87087 4.1665C4.07286 4.1665 3.14186 4.63525 3.14186 5.98942V7.55192C3.14347 7.96208 3.2925 9.21934 3.87579 8.88334C3.18619 9.69834 3.11652 10.6487 3.126 11.5687C2.94026 11.6223 2.75076 11.6828 2.56685 11.7457C1.99695 11.9406 1.39254 12.1891 1.1195 12.3654C0.82953 12.5527 0.746278 12.9396 0.933546 13.2295C1.12081 13.5195 1.50769 13.6028 1.79765 13.4155C1.92783 13.3314 2.39869 13.1243 2.97126 12.9285C3.03453 12.9068 3.09792 12.8858 3.16098 12.8653C3.19954 13.2268 3.29523 13.5568 3.43748 13.8575L3.41783 13.8678C3.0764 14.0483 2.75958 14.2554 2.55757 14.3875C2.52261 14.4103 2.4911 14.4309 2.46349 14.4488C2.17352 14.636 2.09027 15.0229 2.27754 15.3128C2.4648 15.6028 2.85168 15.6861 3.14165 15.4988C3.17591 15.4767 3.21243 15.4528 3.25097 15.4277C3.45541 15.2943 3.71682 15.1236 4.00182 14.973C4.06865 14.9377 4.13295 14.9057 4.19447 14.8768C5.63639 16.2288 8.22509 16.6665 9.79191 16.6665C11.3587 16.6665 13.9474 16.2288 15.3893 14.8768C15.4508 14.9057 15.5151 14.9377 15.5819 14.973C15.8669 15.1236 16.1283 15.2943 16.3327 15.4277C16.3713 15.4528 16.4078 15.4767 16.4421 15.4988C16.7321 15.6861 17.1189 15.6028 17.3062 15.3128C17.4935 15.0229 17.4102 14.636 17.1202 14.4488C17.0927 14.4309 17.0612 14.4103 17.0262 14.3875C16.8242 14.2554 16.5073 14.0483 16.1659 13.8678L16.1463 13.8575C16.2886 13.5568 16.3842 13.2268 16.4228 12.8653C16.486 12.8857 16.5495 12.9068 16.6128 12.9285C17.1854 13.1243 17.6563 13.3314 17.7865 13.4155C18.0764 13.6028 18.4633 13.5195 18.6506 13.2295C18.8378 12.9396 18.7546 12.5527 18.4647 12.3654C18.1916 12.1891 17.5872 11.9406 17.0172 11.7457C16.8332 11.6828 16.6437 11.6223 16.4578 11.5686C16.4672 10.6486 16.3976 9.69834 15.708 8.88334C16.2913 9.21934 16.4403 7.96208 16.442 7.55192V5.98951C16.442 4.63535 15.5109 4.1666 14.7129 4.1666C13.9149 4.1666 12.3189 5.46859 11.7869 5.46859C11.1485 5.46859 11.0256 5.33847 9.79191 5.33847ZM9.22891 13.0002C9.39775 12.9427 9.597 12.9165 9.79191 12.9165C9.98683 12.9165 10.1861 12.9427 10.3549 13.0002C10.4377 13.0283 10.5391 13.0728 10.6282 13.1447C10.7178 13.2168 10.8336 13.3503 10.8336 13.5415C10.8336 13.7327 10.7178 13.8663 10.6282 13.9383C10.5391 14.0102 10.4377 14.0547 10.3549 14.0828C10.1861 14.1403 9.98683 14.1665 9.79191 14.1665C9.597 14.1665 9.39775 14.1403 9.22891 14.0828C9.14608 14.0547 9.04475 14.0102 8.9555 13.9383C8.86591 13.8663 8.75025 13.7327 8.75025 13.5415C8.75025 13.3503 8.86591 13.2168 8.9555 13.1447C9.04475 13.0728 9.14608 13.0283 9.22891 13.0002ZM11.6002 10.4169C11.714 10.2266 11.9385 9.99984 12.2752 9.99984C12.612 9.99984 12.8365 10.2266 12.9502 10.4169C13.0687 10.6154 13.1252 10.856 13.1252 11.0936C13.1252 11.3312 13.0687 11.5718 12.9502 11.7703C12.8365 11.9606 12.612 12.1873 12.2752 12.1873C11.9385 12.1873 11.714 11.9606 11.6002 11.7703C11.4817 11.5718 11.4252 11.3312 11.4252 11.0936C11.4252 10.856 11.4817 10.6154 11.6002 10.4169ZM6.63363 10.4169C6.74731 10.2266 6.97182 9.99984 7.30858 9.99984C7.64534 9.99984 7.86985 10.2266 7.98353 10.4169C8.10211 10.6154 8.15859 10.856 8.15859 11.0936C8.15859 11.3312 8.10211 11.5718 7.98353 11.7703C7.86985 11.9606 7.64534 12.1873 7.30858 12.1873C6.97182 12.1873 6.74731 11.9606 6.63363 11.7703C6.51505 11.5718 6.45857 11.3312 6.45857 11.0936C6.45857 10.856 6.51505 10.6154 6.63363 10.4169Z" fill="#472922"/>
</svg>
