<?xml version="1.0" standalone="no"?>
<!DOCTYPE svg PUBLIC "-//W3C//DTD SVG 20010904//EN"
 "http://www.w3.org/TR/2001/REC-SVG-20010904/DTD/svg10.dtd">
<svg version="1.0" xmlns="http://www.w3.org/2000/svg"
 width="700.000000pt" height="700.000000pt" viewBox="0 0 700.000000 700.000000"
 preserveAspectRatio="xMidYMid meet">
<metadata>
Created by potrace 1.14, written by Peter Selinger 2001-2017
</metadata>
<g transform="translate(0.000000,700.000000) scale(0.100000,-0.100000)"
fill="#000000" stroke="none">
<path d="M5919 6684 c-31 -7 -83 -27 -115 -44 -64 -34 -156 -91 -164 -100 -3
-4 -25 -20 -50 -37 -76 -52 -210 -160 -304 -246 -49 -45 -105 -94 -124 -109
-18 -15 -183 -102 -366 -193 -379 -188 -425 -216 -523 -311 -248 -244 -467
-594 -684 -1093 l-20 -44 -25 24 c-34 32 -87 127 -130 235 -56 139 -66 158
-203 383 -44 74 -81 138 -81 143 0 4 -4 8 -10 8 -5 0 -10 5 -10 11 0 21 -161
227 -232 295 -144 140 -275 203 -518 250 -42 8 -229 68 -285 92 -98 42 -248
123 -340 184 -118 79 -203 145 -329 256 -144 127 -332 222 -438 222 -84 0
-131 -29 -168 -103 -30 -61 -37 -83 -46 -142 -2 -16 -6 -43 -9 -58 -10 -60
-19 -250 -19 -407 0 -203 10 -381 28 -515 15 -105 19 -132 22 -147 1 -9 6 -38
10 -65 3 -26 8 -57 10 -67 6 -34 6 -169 -1 -221 -10 -82 -74 -299 -115 -390
-24 -55 -181 -542 -250 -780 -40 -136 -169 -629 -175 -670 -2 -11 -24 -115
-49 -232 -25 -116 -48 -229 -52 -250 -3 -21 -7 -45 -9 -53 -3 -8 -7 -33 -10
-55 -4 -22 -8 -47 -10 -55 -2 -8 -7 -37 -10 -65 -4 -27 -8 -57 -10 -65 -2 -8
-7 -37 -11 -65 -3 -27 -8 -59 -10 -70 -2 -11 -6 -42 -10 -70 -3 -27 -7 -59 -8
-70 -2 -11 -7 -49 -11 -85 -4 -36 -8 -76 -11 -90 -2 -14 -6 -56 -10 -95 -3
-38 -7 -81 -10 -95 -7 -44 -17 -263 -17 -360 0 -382 83 -587 297 -733 100 -68
286 -140 481 -186 156 -36 183 -42 212 -47 15 -2 54 -8 86 -12 64 -10 345 -8
392 2 137 31 206 64 274 135 60 62 104 154 116 245 4 26 8 232 10 459 1 227 5
448 9 492 3 44 8 116 12 160 3 44 7 96 9 115 2 19 6 64 10 100 6 67 11 109 20
183 3 23 8 60 11 82 4 40 14 106 19 135 3 16 14 85 21 135 3 17 9 55 14 85 5
30 12 73 16 95 3 22 19 108 36 190 37 187 34 171 43 225 3 25 16 80 27 123 34
128 111 188 146 114 8 -16 34 -104 58 -195 25 -92 53 -196 63 -232 26 -92 71
-256 76 -277 2 -10 16 -61 30 -113 42 -151 52 -189 80 -295 15 -55 49 -181 76
-280 28 -99 52 -187 54 -195 36 -153 94 -327 142 -429 49 -103 144 -199 227
-230 115 -43 185 -51 416 -46 289 5 378 14 474 46 123 41 202 111 256 226 26
55 67 227 126 533 8 39 49 229 58 267 9 38 25 109 30 133 3 14 7 34 10 45 2
11 10 43 16 70 6 28 14 59 16 70 3 11 7 31 10 45 22 110 145 524 179 605 7 17
32 80 55 140 24 61 51 128 60 150 9 22 25 60 35 85 10 25 22 49 26 53 6 8 75
-188 85 -243 3 -14 9 -41 14 -60 13 -49 100 -487 106 -530 2 -19 6 -46 9 -60
15 -71 51 -304 65 -420 6 -52 13 -104 15 -115 1 -11 6 -56 10 -100 4 -44 9
-88 11 -98 2 -10 6 -62 9 -115 4 -53 9 -108 12 -122 3 -14 6 -236 7 -495 2
-336 6 -483 14 -515 42 -151 119 -251 242 -313 171 -87 359 -81 795 23 50 12
101 24 115 27 89 15 207 63 289 117 97 64 138 103 190 181 72 107 106 196 142
365 30 143 32 444 5 610 -3 14 -7 48 -11 75 -3 28 -10 77 -15 110 -5 33 -11
83 -15 110 -5 41 -29 206 -60 410 -8 50 -14 84 -19 111 -2 12 -7 37 -10 55 -3
19 -13 72 -21 119 -9 47 -18 94 -20 105 -7 44 -35 177 -65 315 -18 80 -34 152
-35 160 -20 94 -137 540 -175 670 -18 58 -35 119 -40 135 -29 102 -55 183
-153 470 -118 347 -152 452 -162 505 -11 59 -15 292 -5 345 31 188 44 361 45
605 0 346 -24 514 -88 622 -50 82 -109 106 -208 82z"/>
</g>
</svg>
